<svg xmlns="http://www.w3.org/2000/svg" xml:space="preserve" width="211.032mm" height="211.032mm" version="1.1"
style="fill-rule:evenodd" viewBox="0 0 21103 21103">
 <!-- @treedbox, treedbox.com -->
 <defs>
  <style type="text/css">
   <![CDATA[
    .fil4 {fill:none}
    .fil3 {fill:black}
    .fil0 {fill:#330066}
    .fil1 {fill:#E6E6E6}
    .fil2 {fill:#FF0066}
    .fil6 {fill:black}
    .fil9 {fill:#6633FF}
    .fil11 {fill:#66FFCC}
    .fil5 {fill:#9933CC}
    .fil12 {fill:red}
    .fil8 {fill:#FF0066}
    .fil10 {fill:#FF99FF}
    .fil13 {fill:#FFDD00}
    .fil7 {fill:white}
   ]]>
  </style>
 </defs>
  <g>
   <g>
    <rect class="fil0" x="3983" y="9907" width="1126" height="2957"/>
    <rect class="fil0" x="6027" y="9907" width="1126" height="2957"/>
    <rect class="fil1" transform="matrix(-0.0018104 1.52589 -1.52589 -0.00180916 11242.9 5766.15)" width="989" height="1441"/>
    <rect class="fil1" transform="matrix(-0.00174041 1.4669 1.4669 0.00174041 7532.37 5761.73)" width="1029" height="1029"/>
    <rect class="fil1" x="2715" y="1616" width="5707" height="4146"/>
    <path class="fil2" d="M5794 1616l-3079 0 0 3080c47,0 90,0 138,0 1628,0 2946,-1319 2946,-2942 0,-48 0,-95 -5,-138l0 0z"/>
    <path class="fil2" d="M8422 1616l-3199 0c533,781 1428,1295 2442,1295 262,0 514,-34 757,-100l0 -1195z"/>
    <rect class="fil3" x="7078" y="3870" width="732" height="219"/>
    <rect class="fil3" x="5835" y="3870" width="732" height="219"/>
    <polygon class="fil3" points="5084,5513 5942,4664 7665,4664 7665,5513 "/>
    <rect class="fil0" x="2715" y="9907" width="5707" height="1100"/>
    <g>
     <rect class="fil1" x="4813" y="5762" width="1511" height="4146"/>
     <rect class="fil1" x="2715" y="6247" width="5707" height="1309"/>
     <rect class="fil1" x="2715" y="8041" width="5707" height="1309"/>
    </g>
    <rect class="fil1" transform="matrix(0.381626 -1.41639 1.41639 0.381626 5704.05 7883.69)" width="1029" height="1029"/>
    <rect class="fil1" transform="matrix(0.396972 -1.47335 1.47335 0.396973 7164.18 8277.09)" width="989" height="1441"/>
   </g>
   <g>
    <rect class="fil1" x="16218" y="8035" width="738" height="1938"/>
    <rect class="fil1" x="14879" y="8035" width="738" height="1938"/>
    <rect class="fil1" transform="matrix(0.00118645 0.999999 -0.999999 0.00118564 13639.4 5318.75)" width="989" height="1441"/>
    <rect class="fil1" transform="matrix(0.00114059 0.961341 -0.961341 0.00114059 14630.5 5317.56)" width="1029" height="1029"/>
    <rect class="fil1" x="14048" y="2601" width="3740" height="2717"/>
    <rect class="fil3" x="14449" y="4078" width="480" height="144"/>
    <rect class="fil3" x="15263" y="4078" width="480" height="144"/>
    <polygon class="fil3" points="16235,5155 15673,4598 14544,4598 14544,5155 "/>
    <rect class="fil1" x="14048" y="8035" width="3740" height="721"/>
    <g>
     <rect class="fil1" x="15423" y="5318" width="990" height="2717"/>
     <rect class="fil1" x="14048" y="5636" width="3740" height="858"/>
     <rect class="fil1" x="14048" y="6812" width="3740" height="858"/>
    </g>
    <rect class="fil1" transform="matrix(-0.2501 -0.928239 -0.928239 0.2501 15828.7 6708.19)" width="1029" height="1029"/>
    <rect class="fil1" transform="matrix(-0.260158 -0.965566 0.965566 -0.260158 13480.7 7340.81)" width="989" height="1441"/>
   </g>
   <g>
    <rect class="fil4" y="9642" width="21103" height="9845"/>
    <polygon class="fil5" points="2061,19487 1657,19487 818,19487 0,19487 0,18670 0,18254 0,17437 415,17437 415,17000 0,17000 0,16327 0,16183 0,15768 0,15509 0,14950 0,13347 0,12529 722,12529 722,11998 0,11998 0,11181 0,10460 0,9642 818,9642 3701,9642 4519,9642 4519,10460 4519,11086 5146,11086 6586,11086 7213,11086 7404,11086 8030,11086 9375,11086 9474,11086 10193,11086 10292,11086 10914,11086 11538,11086 11538,10460 11538,9642 12355,9642 13078,9642 13895,9642 13895,10460 13895,11086 14518,11086 15144,11086 15144,10460 15144,9642 15962,9642 16683,9642 17501,9642 17501,10460 17501,11086 18124,11086 19564,11086 20382,11086 20382,11808 21103,11808 21103,12626 21103,14066 21103,14883 20382,14883 20382,15509 20382,15780 20689,15780 20689,16195 21103,16195 21103,17013 21103,18670 21103,19487 20285,19487 19871,19487 19861,19487 19053,19487 19044,19487 18629,19487 18617,19487 17811,19487 17799,19487 16972,19487 16961,19487 16154,19487 16144,19487 16133,19487 15729,19487 15316,19487 14912,19487 14903,19487 14475,19487 14085,19487 13657,19487 12416,19487 12404,19487 11598,19487 11587,19487 11174,19487 10356,19487 10356,19072 10332,19072 10332,19487 9514,19487 8272,19487 8260,19487 7454,19487 7442,19487 6615,19487 6194,19487 5797,19487 5377,19487 4962,19487 4949,19487 4144,19487 4131,19487 3717,19487 3707,19487 2899,19487 2890,19487 2879,19487 2475,19487 "/>
    <path class="fil6" d="M18679 18620l315 0 0 -1607 0 -50 50 0 777 0 0 -315 -1142 0 0 1972zm365 100l-415 0 -50 0 0 -50 0 -2072 0 -50 50 0 1242 0 50 0 0 50 0 365 364 0 50 0 0 50 0 1657 0 50 -50 0 -414 0 -50 0 0 -50 0 -1607 -727 0 0 1607 0 50 -50 0zm877 -1657l0 1557 314 0 0 -1557 -314 0z"/>
    <polygon class="fil7" points="18629,18670 19044,18670 19044,17013 19871,17013 19871,18670 20285,18670 20285,17013 19871,17013 19871,16598 18629,16598 "/>
    <path class="fil6" d="M17022 16963l727 0 0 -315 -727 0 0 315zm727 100l-777 0 -50 0 0 -50 0 -415 0 -50 50 0 827 0 50 0 0 50 0 365 364 0 50 0 0 50 0 1241 0 50 -50 0 -414 0 -50 0 0 -50 0 -1191zm100 0l0 1141 314 0 0 -1141 -314 0z"/>
    <polygon class="fil7" points="16972,17013 17799,17013 17799,18254 18213,18254 18213,17013 17799,17013 17799,16598 16972,16598 "/>
    <path class="fil6" d="M16607 18204l315 0 0 -1141 -315 0 0 1141zm315 100l-365 0 -50 0 0 -50 0 -1241 0 -50 50 0 415 0 50 0 0 50 0 1191 777 0 50 0 0 50 0 416 0 50 -50 0 -827 0 -50 0 0 -50 0 -366zm100 0l0 316 727 0 0 -316 -727 0z"/>
    <polygon class="fil7" points="16557,18254 16972,18254 16972,18670 17799,18670 17799,18254 16972,18254 16972,17013 16557,17013 "/>
    <path class="fil6" d="M15779 16133l315 0 0 -315 -315 0 0 315zm365 100l-415 0 -50 0 0 -50 0 -415 0 -50 50 0 415 0 50 0 0 50 0 415 0 50 -50 0z"/>
    <polygon class="fil7" points="15729,16183 16144,16183 16144,15768 15729,15768 "/>
    <path class="fil6" d="M15779 18620l315 0 0 -1972 -315 0 0 1972zm365 100l-415 0 -50 0 0 -50 0 -2072 0 -50 50 0 415 0 50 0 0 50 0 2072 0 50 -50 0z"/>
    <polygon class="fil7" points="15729,18670 16144,18670 16144,16598 15729,16598 "/>
    <path class="fil6" d="M14122 16963l365 0 50 0 0 50 0 1191 316 0 0 -1191 0 -50 50 0 363 0 0 -315 -363 0 -50 0 0 -50 0 -780 -316 0 0 780 0 50 -50 0 -365 0 0 315zm315 100l-365 0 -50 0 0 -50 0 -415 0 -50 50 0 365 0 0 -780 0 -50 50 0 416 0 50 0 0 50 0 780 363 0 50 0 0 50 0 415 0 50 -50 0 -363 0 0 1141 363 0 50 0 0 50 0 416 0 50 -50 0 -413 0 -50 0 0 -50 0 -366 -366 0 -50 0 0 -50 0 -1191zm516 1241l0 316 313 0 0 -316 -313 0z"/>
    <polygon class="fil7" points="14072,17013 14487,17013 14487,18254 14903,18254 14903,18670 15316,18670 15316,18254 14903,18254 14903,17013 15316,17013 15316,16598 14903,16598 14903,15768 14487,15768 14487,16598 14072,16598 "/>
    <path class="fil6" d="M12050 18204l316 0 0 -314 -316 0 0 314zm316 100l-366 0 -50 0 0 -50 0 -414 0 -50 50 0 366 0 0 -363 0 -50 50 0 777 0 0 -314 -777 0 -50 0 0 -50 0 -415 0 -50 50 0 827 0 50 0 0 50 0 365 364 0 50 0 0 50 0 1657 0 50 -50 0 -1241 0 -50 0 0 -50 0 -366zm100 0l0 316 1141 0 0 -1557 -314 0 0 364 0 50 -50 0 -777 0 0 313 777 0 50 0 0 50 0 414 0 50 -50 0 -777 0zm727 -1341l0 -315 -727 0 0 315 727 0zm0 927l-727 0 0 314 727 0 0 -314z"/>
    <polygon class="fil7" points="12000,18254 12416,18254 12416,18670 13657,18670 13657,17013 13243,17013 13243,16598 12416,16598 12416,17013 13243,17013 13243,17427 12416,17427 12416,17840 13243,17840 13243,18254 12416,18254 12416,17840 12000,17840 "/>
    <path class="fil6" d="M10394 16963l365 0 50 0 0 50 0 1191 315 0 0 -1191 0 -50 50 0 363 0 0 -315 -363 0 -50 0 0 -50 0 -780 -315 0 0 780 0 50 -50 0 -365 0 0 315zm315 100l-365 0 -50 0 0 -50 0 -415 0 -50 50 0 365 0 0 -780 0 -50 50 0 415 0 50 0 0 50 0 780 363 0 50 0 0 50 0 415 0 50 -50 0 -363 0 0 1141 363 0 50 0 0 50 0 416 0 50 -50 0 -413 0 -50 0 0 -50 0 -366 -365 0 -50 0 0 -50 0 -1191zm515 1241l0 316 313 0 0 -316 -313 0z"/>
    <polygon class="fil7" points="10344,17013 10759,17013 10759,18254 11174,18254 11174,18670 11587,18670 11587,18254 11174,18254 11174,17013 11587,17013 11587,16598 11174,16598 11174,15768 10759,15768 10759,16598 10344,16598 "/>
    <path class="fil6" d="M8737 16963l1142 0 0 -315 -1142 0 0 315zm1192 100l-1242 0 -50 0 0 -50 0 -415 0 -50 50 0 1242 0 50 0 0 50 0 415 0 50 -50 0z"/>
    <polygon class="fil7" points="8687,17013 9929,17013 9929,16598 8687,16598 "/>
    <path class="fil6" d="M8322 17377l315 0 0 -314 -315 0 0 314zm315 100l-365 0 -50 0 0 -50 0 -414 0 -50 50 0 415 0 50 0 0 50 0 364 777 0 50 0 0 50 0 363 365 0 50 0 0 50 0 414 0 50 -50 0 -415 0 -50 0 0 -50 0 -364 -777 0 -50 0 0 -50 0 -363zm100 0l0 313 727 0 0 -313 -727 0zm827 413l0 314 315 0 0 -314 -315 0z"/>
    <polygon class="fil7" points="8272,17427 8687,17427 8687,17840 9514,17840 9514,18254 9929,18254 9929,17840 9514,17840 9514,17427 8687,17427 8687,17013 8272,17013 "/>
    <path class="fil6" d="M8322 18620l1142 0 0 -316 -1142 0 0 316zm1192 100l-1242 0 -50 0 0 -50 0 -416 0 -50 50 0 1242 0 50 0 0 50 0 416 0 50 -50 0z"/>
    <polygon class="fil7" points="8272,18670 9514,18670 9514,18254 8272,18254 "/>
    <path class="fil6" d="M6250 18204l315 0 0 -364 0 -50 50 0 1192 0 0 -727 -315 0 0 364 0 50 -50 0 -827 0 -50 0 0 -50 0 -364 -315 0 0 1141zm315 100l-365 0 -50 0 0 -50 0 -1241 0 -50 50 0 365 0 0 -365 0 -50 50 0 827 0 50 0 0 50 0 365 365 0 50 0 0 50 0 827 0 50 -50 0 -1192 0 0 314 777 0 50 0 0 50 0 416 0 50 -50 0 -827 0 -50 0 0 -50 0 -366zm100 0l0 316 727 0 0 -316 -727 0zm727 -1341l0 -315 -727 0 0 315 727 0zm0 100l-727 0 0 314 727 0 0 -314z"/>
    <polygon class="fil7" points="6200,18254 6615,18254 6615,18670 7442,18670 7442,18254 6615,18254 6615,17840 7857,17840 7857,17013 7442,17013 7442,16598 6615,16598 6615,17013 7442,17013 7442,17427 6615,17427 6615,17013 6200,17013 "/>
    <path class="fil6" d="M5427 16133l313 0 0 -315 -313 0 0 315zm363 100l-413 0 -50 0 0 -50 0 -415 0 -50 50 0 413 0 50 0 0 50 0 415 0 50 -50 0z"/>
    <polygon class="fil7" points="5377,16183 5790,16183 5790,15768 5377,15768 "/>
    <path class="fil6" d="M4596 16963l366 0 50 0 0 50 0 1607 315 0 0 -1607 0 -50 50 0 363 0 0 -315 -363 0 -50 0 0 -50 0 -365 -315 0 0 365 0 50 -50 0 -366 0 0 315zm316 100l-366 0 -50 0 0 -50 0 -415 0 -50 50 0 366 0 0 -365 0 -50 50 0 415 0 50 0 0 50 0 365 363 0 50 0 0 50 0 415 0 50 -50 0 -363 0 0 1607 0 50 -50 0 -415 0 -50 0 0 -50 0 -1607z"/>
    <polygon class="fil7" points="4546,17013 4962,17013 4962,18670 5377,18670 5377,17013 5790,17013 5790,16598 5377,16598 5377,16183 4962,16183 4962,16598 4546,16598 "/>
    <path class="fil6" d="M2525 18620l315 0 0 -1607 0 -50 50 0 777 0 0 -315 -1142 0 0 1972zm365 100l-415 0 -50 0 0 -50 0 -2072 0 -50 50 0 1242 0 50 0 0 50 0 365 364 0 50 0 0 50 0 1657 0 50 -50 0 -414 0 -50 0 0 -50 0 -1607 -727 0 0 1607 0 50 -50 0zm877 -1657l0 1557 314 0 0 -1557 -314 0z"/>
    <polygon class="fil7" points="2475,18670 2890,18670 2890,17013 3717,17013 3717,18670 4131,18670 4131,17013 3717,17013 3717,16598 2475,16598 "/>
    <path class="fil6" d="M17452 14737l622 0 0 -671 0 -50 50 0 2111 0 0 -1340 -621 0 0 671 0 50 -50 0 -1440 0 -50 0 0 -50 0 -671 -622 0 0 2061zm622 100l-672 0 -50 0 0 -50 0 -2161 0 -50 50 0 672 0 0 -673 0 -50 50 0 1440 0 50 0 0 50 0 673 671 0 50 0 0 50 0 1440 0 50 -50 0 -2111 0 0 621 1390 0 50 0 0 50 0 722 0 50 -50 0 -1440 0 -50 0 0 -50 0 -672zm100 0l0 622 1340 0 0 -622 -1340 0zm1340 -2261l0 -623 -1340 0 0 623 1340 0zm0 100l-1340 0 0 621 1340 0 0 -621z"/>
    <polygon class="fil8" points="17402,14787 18124,14787 18124,15509 19564,15509 19564,14787 18124,14787 18124,14066 20285,14066 20285,12626 19564,12626 19564,11903 18124,11903 18124,12626 19564,12626 19564,13347 18124,13347 18124,12626 17402,12626 "/>
    <path class="fil6" d="M16012 11131l621 0 0 -621 -621 0 0 621zm671 100l-721 0 -50 0 0 -50 0 -721 0 -50 50 0 721 0 50 0 0 50 0 721 0 50 -50 0z"/>
    <polygon class="fil9" points="15962,11181 16683,11181 16683,10460 15962,10460 "/>
    <path class="fil6" d="M16012 15459l621 0 0 -3506 -621 0 0 3506zm671 100l-721 0 -50 0 0 -50 0 -3606 0 -50 50 0 721 0 50 0 0 50 0 3606 0 50 -50 0z"/>
    <polygon class="fil9" points="15962,15509 16683,15509 16683,11903 15962,11903 "/>
    <path class="fil6" d="M13028 14787l0 -2161 0 -50 50 0 1390 0 0 -623 -1390 0 -50 0 0 -50 0 -1393 -623 0 0 4949 2063 0 0 -622 -1390 0 -50 0 0 -50zm100 -2111l0 2061 1340 0 0 -2061 -1340 0zm1440 0l0 2061 621 0 0 -2061 -621 0zm-50 2883l-2163 0 -50 0 0 -50 0 -5049 0 -50 50 0 723 0 50 0 0 50 0 1393 1390 0 50 0 0 50 0 673 671 0 50 0 0 50 0 2161 0 50 -50 0 -671 0 0 672 0 50 -50 0z"/>
    <path class="fil10" d="M13078 14787l0 -2161 1440 0 0 2161 -1440 0zm-723 722l2163 0 0 -722 721 0 0 -2161 -721 0 0 -723 -1440 0 0 -1443 -723 0 0 5049z"/>
    <path class="fil6" d="M10964 15459l622 0 0 -2699 -622 0 0 2699zm672 100l-722 0 -50 0 0 -50 0 -2799 0 -50 50 0 722 0 50 0 0 50 0 2799 0 50 -50 0z"/>
    <polygon class="fil11" points="10914,15509 11636,15509 11636,12710 10914,12710 "/>
    <path class="fil6" d="M10243 12576l621 0 0 -623 -621 0 0 623zm671 100l-721 0 -50 0 0 -50 0 -723 0 -50 50 0 721 0 50 0 0 50 0 723 0 50 -50 0z"/>
    <polygon class="fil11" points="10193,12626 10914,12626 10914,11903 10193,11903 "/>
    <path class="fil6" d="M8080 15459l623 0 0 -2833 0 -50 50 0 671 0 0 -623 -1344 0 0 3506zm673 100l-723 0 -50 0 0 -50 0 -3606 0 -50 50 0 1444 0 50 0 0 50 0 673 669 0 50 0 0 50 0 2883 0 50 -50 0 -719 0 -50 0 0 -50 0 -2833 -621 0 0 2833 0 50 -50 0zm771 -2883l0 2783 619 0 0 -2783 -619 0z"/>
    <polygon class="fil11" points="8030,15509 8753,15509 8753,12626 9474,12626 9474,15509 10193,15509 10193,12626 9474,12626 9474,11903 8030,11903 "/>
    <path class="fil6" d="M5196 12576l1340 0 0 -623 -1340 0 0 623zm1340 100l-1390 0 -50 0 0 -50 0 -723 0 -50 50 0 1440 0 50 0 0 50 0 673 672 0 50 0 0 50 0 2161 0 50 -50 0 -722 0 -50 0 0 -50 0 -2111zm100 0l0 2061 622 0 0 -2061 -622 0z"/>
    <polygon class="fil12" points="5146,12626 6586,12626 6586,14787 7308,14787 7308,12626 6586,12626 6586,11903 5146,11903 "/>
    <path class="fil6" d="M4474 14737l622 0 0 -2061 -622 0 0 2061zm622 100l-672 0 -50 0 0 -50 0 -2161 0 -50 50 0 722 0 50 0 0 50 0 2111 1390 0 50 0 0 50 0 722 0 50 -50 0 -1440 0 -50 0 0 -50 0 -672zm100 0l0 622 1340 0 0 -622 -1340 0z"/>
    <polygon class="fil12" points="4424,14787 5146,14787 5146,15509 6586,15509 6586,14787 5146,14787 5146,12626 4424,12626 "/>
    <path class="fil6" d="M1590 13297l1340 0 0 -621 -1340 0 0 621zm1390 100l-1440 0 -50 0 0 -50 0 -721 0 -50 50 0 1440 0 50 0 0 50 0 721 0 50 -50 0z"/>
    <polygon class="fil13" points="1540,13347 2980,13347 2980,12626 1540,12626 "/>
    <path class="fil6" d="M868 11131l2112 0 50 0 0 50 0 1395 621 0 0 -2066 -2783 0 0 621zm2062 100l-2112 0 -50 0 0 -50 0 -721 0 -50 50 0 2883 0 50 0 0 50 0 2166 0 50 -50 0 -721 0 -50 0 0 -50 0 -1395z"/>
    <polygon class="fil13" points="818,11181 2980,11181 2980,12626 3701,12626 3701,10460 818,10460 "/>
    <path class="fil6" d="M868 15459l2783 0 0 -622 -2111 0 -50 0 0 -50 0 -1390 -622 0 0 2062zm2833 100l-2883 0 -50 0 0 -50 0 -2162 0 -50 50 0 722 0 50 0 0 50 0 1390 2111 0 50 0 0 50 0 722 0 50 -50 0z"/>
    <polygon class="fil13" points="818,15509 3701,15509 3701,14787 1540,14787 1540,13347 818,13347 "/>
    <path class="fil6" d="M868 18620l1143 0 0 -316 -363 0 -50 0 0 -50 0 -2071 0 -50 50 0 363 0 0 -315 -1143 0 0 315 365 0 50 0 0 50 0 2071 0 50 -50 0 -365 0 0 316zm1193 100l-1243 0 -50 0 0 -50 0 -416 0 -50 50 0 365 0 0 -1971 -365 0 -50 0 0 -50 0 -415 0 -50 50 0 1243 0 50 0 0 50 0 415 0 50 -50 0 -363 0 0 1971 363 0 50 0 0 50 0 416 0 50 -50 0z"/>
    <polygon class="fil7" points="818,18670 2061,18670 2061,18254 1648,18254 1648,16183 2061,16183 2061,15768 818,15768 818,16183 1233,16183 1233,18254 818,18254 "/>
   </g>
  </g>
  <rect class="fil4" width="21103" height="21103"/>
</svg>
