<svg xmlns="http://www.w3.org/2000/svg" xml:space="preserve" width="326.54mm" height="81.6349mm" version="1.1"
style="fill-rule:evenodd" viewBox="0 0 26747 6687">
 <!-- @treedbox, treedbox.com -->
 <defs>
  <style type="text/css">
   <![CDATA[
    .fil0 {fill:none}
    .fil5 {fill:black}
    .fil1 {fill:black}
    .fil4 {fill:#663300}
    .fil3 {fill:#FFCC99}
    .fil2 {fill:white}
   ]]>
  </style>
 </defs>
 <g>
  <rect class="fil0" x="13373" width="6687" height="6687"/>
  <circle class="fil1" cx="15158" cy="959" r="856"/>
  <circle class="fil1" cx="18221" cy="959" r="856"/>
  <rect class="fil0" width="6687" height="6687"/>
  <circle class="fil1" cx="3992" cy="959" r="856"/>
  <rect class="fil0" x="20060" width="6687" height="6687"/>
  <rect class="fil2" x="15839" y="4775" width="604" height="1587"/>
  <rect class="fil2" x="16936" y="4775" width="604" height="1587"/>
  <rect class="fil3" transform="matrix(0.865432 -0.501027 0.501026 0.865432 17926.6 3657.98)" width="810" height="1180"/>
  <rect class="fil2" transform="matrix(0.831975 -0.481658 0.481658 0.831975 17519.9 2955.49)" width="843" height="843"/>
  <rect class="fil3" x="15158" y="324" width="3063" height="2225"/>
  <rect class="fil4" x="16927" y="1425" width="191" height="335"/>
  <rect class="fil4" x="16260" y="1425" width="191" height="335"/>
  <rect class="fil2" x="15158" y="2550" width="3063" height="2225"/>
  <polygon class="fil5" points="16211,2416 16529,1961 17168,1961 17168,2416 "/>
  <rect class="fil2" transform="matrix(0.831879 0.481824 -0.481824 0.831879 15156.3 2549.69)" width="843" height="843"/>
  <rect class="fil3" transform="matrix(0.865332 0.5012 -0.5012 0.865331 14749.4 3252.11)" width="810" height="1180"/>
  <rect class="fil2" x="15158" y="4775" width="3063" height="590"/>
  <rect class="fil2" x="22525" y="4775" width="604" height="1587"/>
  <rect class="fil2" x="23623" y="4775" width="604" height="1587"/>
  <rect class="fil3" transform="matrix(0.865432 0.501027 -0.501026 0.865432 25204.5 1378.96)" width="810" height="1180"/>
  <rect class="fil2" transform="matrix(0.831975 0.481658 0.481658 -0.831975 24206.5 3102.7)" width="843" height="843"/>
  <rect class="fil3" x="21845" y="324" width="3063" height="2225"/>
  <rect class="fil2" x="21845" y="2550" width="3063" height="2225"/>
  <rect class="fil2" transform="matrix(0.831879 -0.481824 -0.481824 -0.831879 21842.9 3508.61)" width="843" height="843"/>
  <rect class="fil3" transform="matrix(0.865332 -0.5012 0.5012 0.865331 20844.6 1785.06)" width="810" height="1180"/>
  <rect class="fil2" x="21845" y="4775" width="3063" height="590"/>
  <rect class="fil2" x="2466" y="4775" width="604" height="1587"/>
  <rect class="fil2" x="3563" y="4775" width="604" height="1587"/>
  <rect class="fil3" transform="matrix(-0.00118645 0.999999 -0.999999 -0.00118564 6362.38 2552.05)" width="810" height="1180"/>
  <rect class="fil2" transform="matrix(-0.00114059 0.961341 0.961341 0.00114059 4370.61 2549.68)" width="843" height="843"/>
  <rect class="fil3" x="1785" y="324" width="3063" height="2225"/>
  <rect class="fil4" x="4227" y="1425" width="191" height="335"/>
  <rect class="fil4" x="3560" y="1425" width="191" height="335"/>
  <rect class="fil2" x="1785" y="2550" width="3063" height="2225"/>
  <polygon class="fil5" points="3271,2416 3589,1961 4227,1961 4227,2416 "/>
  <rect class="fil2" transform="matrix(0.2501 -0.928239 0.928239 0.2501 3389.18 3688.73)" width="843" height="843"/>
  <rect class="fil3" transform="matrix(0.260158 -0.965566 0.965566 0.260158 4172.97 3899.91)" width="810" height="1180"/>
  <rect class="fil2" x="1785" y="4775" width="3063" height="590"/>
  <circle class="fil1" cx="2028" cy="959" r="856"/>
  <path class="fil1" d="M1785 324c0,742 0,1484 0,2226 910,-551 1499,-1301 1806,-2226 448,274 858,186 1257,0 -1032,-88 -2059,-130 -3063,0z"/>
  <rect class="fil0" x="6687" width="6687" height="6687"/>
  <circle class="fil1" cx="9382" cy="959" r="856"/>
  <rect class="fil2" x="10303" y="4775" width="604" height="1587"/>
  <rect class="fil2" x="9206" y="4775" width="604" height="1587"/>
  <rect class="fil3" transform="matrix(0.00118645 0.999999 0.999999 -0.00118564 7010.91 2552.05)" width="810" height="1180"/>
  <rect class="fil2" transform="matrix(0.00114059 0.961341 -0.961341 0.00114059 9002.68 2549.68)" width="843" height="843"/>
  <rect class="fil3" x="8525" y="324" width="3063" height="2225"/>
  <rect class="fil4" x="8955" y="1425" width="191" height="335"/>
  <rect class="fil4" x="9621" y="1425" width="191" height="335"/>
  <rect class="fil2" x="8525" y="2550" width="3063" height="2225"/>
  <polygon class="fil5" points="10103,2416 9785,1961 9146,1961 9146,2416 "/>
  <rect class="fil2" transform="matrix(-0.2501 -0.928239 -0.928239 0.2501 9984.12 3688.73)" width="843" height="843"/>
  <rect class="fil3" transform="matrix(-0.260158 -0.965566 -0.965566 0.260158 9200.32 3899.91)" width="810" height="1180"/>
  <rect class="fil2" x="8525" y="4775" width="3063" height="590"/>
  <circle class="fil1" cx="11345" cy="959" r="856"/>
  <path class="fil1" d="M11589 324c0,742 0,1484 0,2226 -911,-551 -1500,-1301 -1807,-2226 -448,274 -857,186 -1257,0 1032,-88 2059,-130 3064,0z"/>
  <path class="fil1" d="M15158 324c-1,742 -1,1484 -2,2226 227,-742 454,-1484 680,-2226 547,144 1059,169 1513,0 291,742 581,1484 872,2226 0,-742 0,-1484 0,-2226 -1021,0 -2042,0 -3063,0z"/>
  <path class="fil1" d="M23376 2550c-745,-332 -1210,-1153 -1531,-2226 1021,0 2042,0 3063,0 -273,886 -574,1754 -1532,2226z"/>
  <circle class="fil1" cx="21986" cy="959" r="856"/>
  <circle class="fil1" cx="25049" cy="959" r="856"/>
 </g>
</svg>
