<svg xmlns="http://www.w3.org/2000/svg" xml:space="preserve" width="326.54mm" height="81.6349mm" version="1.1"
style="fill-rule:evenodd" viewBox="0 0 26747 6687">
 <!-- @treedbox, treedbox.com -->
 <defs>
  <style type="text/css">
   <![CDATA[
    .fil0 {fill:none}
    .fil5 {fill:black}
    .fil4 {fill:black}
    .fil2 {fill:#000066}
    .fil1 {fill:red}
    .fil3 {fill:white}
   ]]>
  </style>
 </defs>
 <g>
  <rect class="fil0" x="13373" width="6687" height="6687"/>
  <g>
   <path class="fil1" d="M19816 1160c-735,289 -1470,577 -2205,866 -477,-118 -626,-412 -476,-866 893,0 1787,0 2681,0z"/>
   <path class="fil1" d="M13617 1160c735,289 1470,577 2205,866 477,-118 626,-412 477,-866 -894,0 -1788,0 -2682,0z"/>
  </g>
  <rect class="fil0" width="6687" height="6687"/>
  <path class="fil1" d="M6300 726c-735,289 -1470,578 -2205,867 -477,-118 -626,-412 -477,-867 894,0 1788,0 2682,0z"/>
  <rect class="fil0" x="20060" width="6687" height="6687"/>
  <rect class="fil2" x="15839" y="4775" width="604" height="1587"/>
  <rect class="fil2" x="16936" y="4775" width="604" height="1587"/>
  <rect class="fil2" transform="matrix(0.865432 -0.501027 0.501026 0.865432 17926.6 3657.98)" width="810" height="1180"/>
  <rect class="fil2" transform="matrix(0.831975 -0.481658 0.481658 0.831975 17519.9 2955.49)" width="843" height="843"/>
  <rect class="fil3" x="15158" y="324" width="3063" height="2225"/>
  <rect class="fil4" x="16927" y="1425" width="191" height="335"/>
  <rect class="fil4" x="16260" y="1425" width="191" height="335"/>
  <rect class="fil2" x="15158" y="2550" width="3063" height="2225"/>
  <polygon class="fil5" points="16211,2416 16529,1961 17168,1961 17168,2416 "/>
  <rect class="fil2" transform="matrix(0.831879 0.481824 -0.481824 0.831879 15156.3 2549.69)" width="843" height="843"/>
  <rect class="fil2" transform="matrix(0.865332 0.5012 -0.5012 0.865331 14749.4 3252.11)" width="810" height="1180"/>
  <rect class="fil2" x="15158" y="4775" width="3063" height="590"/>
  <rect class="fil2" x="22525" y="4775" width="604" height="1587"/>
  <rect class="fil2" x="23623" y="4775" width="604" height="1587"/>
  <rect class="fil2" transform="matrix(0.865432 0.501027 -0.501026 0.865432 25204.5 1378.96)" width="810" height="1180"/>
  <rect class="fil2" transform="matrix(0.831975 0.481658 0.481658 -0.831975 24206.5 3102.7)" width="843" height="843"/>
  <rect class="fil3" x="21845" y="324" width="3063" height="2225"/>
  <rect class="fil2" x="21845" y="2550" width="3063" height="2225"/>
  <rect class="fil2" transform="matrix(0.831879 -0.481824 -0.481824 -0.831879 21842.9 3508.61)" width="843" height="843"/>
  <rect class="fil2" transform="matrix(0.865332 -0.5012 0.5012 0.865331 20844.6 1785.06)" width="810" height="1180"/>
  <rect class="fil2" x="21845" y="4775" width="3063" height="590"/>
  <rect class="fil2" x="2466" y="4775" width="604" height="1587"/>
  <rect class="fil2" x="3563" y="4775" width="604" height="1587"/>
  <rect class="fil2" transform="matrix(-0.00118645 0.999999 -0.999999 -0.00118564 6362.38 2552.05)" width="810" height="1180"/>
  <rect class="fil2" transform="matrix(-0.00114059 0.961341 0.961341 0.00114059 4370.61 2549.68)" width="843" height="843"/>
  <rect class="fil3" x="1785" y="324" width="3063" height="2225"/>
  <rect class="fil4" x="4227" y="1425" width="191" height="335"/>
  <rect class="fil4" x="3560" y="1425" width="191" height="335"/>
  <rect class="fil2" x="1785" y="2550" width="3063" height="2225"/>
  <polygon class="fil5" points="3271,2416 3589,1961 4227,1961 4227,2416 "/>
  <rect class="fil2" transform="matrix(0.2501 -0.928239 0.928239 0.2501 3389.18 3688.73)" width="843" height="843"/>
  <rect class="fil2" transform="matrix(0.260158 -0.965566 0.965566 0.260158 4172.97 3899.91)" width="810" height="1180"/>
  <rect class="fil2" x="1785" y="4775" width="3063" height="590"/>
  <path class="fil1" d="M389 1593c735,-289 1470,-578 2205,-867 476,119 626,413 476,867 -894,0 -1788,0 -2681,0z"/>
  <g>
   <path class="fil1" d="M26503 1160c-735,289 -1470,577 -2205,866 -477,-118 -626,-412 -477,-866 894,0 1788,0 2682,0z"/>
   <path class="fil1" d="M20304 1160c735,289 1470,577 2205,866 476,-118 626,-412 476,-866 -894,0 -1787,0 -2681,0z"/>
  </g>
  <rect class="fil0" x="6687" width="6687" height="6687"/>
  <path class="fil1" d="M7074 726c735,289 1470,578 2205,867 476,-118 626,-412 476,-867 -894,0 -1788,0 -2681,0z"/>
  <rect class="fil2" x="10303" y="4775" width="604" height="1587"/>
  <rect class="fil2" x="9206" y="4775" width="604" height="1587"/>
  <rect class="fil2" transform="matrix(0.00118645 0.999999 0.999999 -0.00118564 7010.91 2552.05)" width="810" height="1180"/>
  <rect class="fil2" transform="matrix(0.00114059 0.961341 -0.961341 0.00114059 9002.68 2549.68)" width="843" height="843"/>
  <rect class="fil3" x="8525" y="324" width="3063" height="2225"/>
  <rect class="fil4" x="8955" y="1425" width="191" height="335"/>
  <rect class="fil4" x="9621" y="1425" width="191" height="335"/>
  <rect class="fil2" x="8525" y="2550" width="3063" height="2225"/>
  <polygon class="fil5" points="10103,2416 9785,1961 9146,1961 9146,2416 "/>
  <rect class="fil2" transform="matrix(-0.2501 -0.928239 -0.928239 0.2501 9984.12 3688.73)" width="843" height="843"/>
  <rect class="fil2" transform="matrix(-0.260158 -0.965566 -0.965566 0.260158 9200.32 3899.91)" width="810" height="1180"/>
  <rect class="fil2" x="8525" y="4775" width="3063" height="590"/>
  <path class="fil1" d="M12985 1593c-735,-289 -1470,-578 -2205,-867 -477,119 -626,413 -477,867 894,0 1788,0 2682,0z"/>
 </g>
</svg>
