<svg xmlns="http://www.w3.org/2000/svg" xml:space="preserve" width="326.54mm" height="81.6349mm" version="1.1"
style="fill-rule:evenodd" viewBox="0 0 26747 6687">
 <!-- @treedbox, treedbox.com -->
 <defs>
  <style type="text/css">
   <![CDATA[
    .fil0 {fill:none}
    .fil6 {fill:black}
    .fil1 {fill:black}
    .fil4 {fill:#663300}
    .fil5 {fill:red}
    .fil2 {fill:#FFCC99}
    .fil3 {fill:yellow}
   ]]>
  </style>
 </defs>
 <g>
  <rect class="fil0" x="13373" width="6687" height="6687"/>
  <rect class="fil0" x="20060" width="6687" height="6687"/>
  <rect class="fil0" width="6687" height="6687"/>
  <rect class="fil1" x="15839" y="4775" width="604" height="1587"/>
  <rect class="fil1" x="16936" y="4775" width="604" height="1587"/>
  <rect class="fil2" transform="matrix(0.865432 -0.501027 0.501026 0.865432 17926.6 3657.98)" width="810" height="1180"/>
  <rect class="fil3" transform="matrix(0.831975 -0.481658 0.481658 0.831975 17519.9 2955.49)" width="843" height="843"/>
  <rect class="fil2" x="15158" y="324" width="3063" height="2225"/>
  <rect class="fil4" x="16927" y="1425" width="191" height="335"/>
  <rect class="fil4" x="16260" y="1425" width="191" height="335"/>
  <rect class="fil5" x="15158" y="2550" width="3063" height="2225"/>
  <polygon class="fil6" points="16211,2416 16529,1961 17168,1961 17168,2416 "/>
  <rect class="fil3" transform="matrix(0.831879 0.481824 -0.481824 0.831879 15156.3 2549.69)" width="843" height="843"/>
  <rect class="fil2" transform="matrix(0.865332 0.5012 -0.5012 0.865331 14749.4 3252.11)" width="810" height="1180"/>
  <rect class="fil1" x="15158" y="4775" width="3063" height="590"/>
  <rect class="fil1" x="22525" y="4775" width="604" height="1587"/>
  <rect class="fil1" x="23623" y="4775" width="604" height="1587"/>
  <rect class="fil2" transform="matrix(0.865432 0.501027 -0.501026 0.865432 25204.5 1378.96)" width="810" height="1180"/>
  <rect class="fil3" transform="matrix(0.831975 0.481658 0.481658 -0.831975 24206.5 3102.7)" width="843" height="843"/>
  <rect class="fil2" x="21845" y="324" width="3063" height="2225"/>
  <rect class="fil5" x="21845" y="2550" width="3063" height="2225"/>
  <rect class="fil3" transform="matrix(0.831879 -0.481824 -0.481824 -0.831879 21842.9 3508.61)" width="843" height="843"/>
  <rect class="fil2" transform="matrix(0.865332 -0.5012 0.5012 0.865331 20844.6 1785.06)" width="810" height="1180"/>
  <rect class="fil1" x="21845" y="4775" width="3063" height="590"/>
  <rect class="fil1" x="2466" y="4775" width="604" height="1587"/>
  <rect class="fil1" x="3563" y="4775" width="604" height="1587"/>
  <rect class="fil2" transform="matrix(-0.00118645 0.999999 -0.999999 -0.00118564 6362.38 2552.05)" width="810" height="1180"/>
  <rect class="fil3" transform="matrix(-0.00114059 0.961341 0.961341 0.00114059 4370.61 2549.68)" width="843" height="843"/>
  <rect class="fil2" x="1785" y="324" width="3063" height="2225"/>
  <rect class="fil4" x="4227" y="1425" width="191" height="335"/>
  <rect class="fil4" x="3560" y="1425" width="191" height="335"/>
  <rect class="fil5" x="1785" y="2550" width="3063" height="2225"/>
  <polygon class="fil6" points="3271,2416 3589,1961 4227,1961 4227,2416 "/>
  <rect class="fil3" transform="matrix(0.2501 -0.928239 0.928239 0.2501 3389.18 3688.73)" width="843" height="843"/>
  <rect class="fil2" transform="matrix(0.260158 -0.965566 0.965566 0.260158 4172.97 3899.91)" width="810" height="1180"/>
  <rect class="fil1" x="1785" y="4775" width="3063" height="590"/>
  <polygon class="fil1" points="4848,324 1785,324 1785,0 2109,324 2354,0 2565,324 2721,0 2877,324 3054,0 3316,324 3543,0 3710,324 4034,0 4166,324 4490,0 4490,324 4814,0 "/>
  <polygon class="fil1" points="18221,324 15158,324 15158,0 15482,324 15727,0 15939,324 16094,0 16250,324 16428,0 16690,324 16917,0 17083,324 17408,0 17539,324 17863,0 17863,324 18188,0 "/>
  <polygon class="fil1" points="24908,324 21845,324 21845,0 22169,324 22414,0 22625,324 22781,0 22936,324 23114,0 23376,324 23603,0 23770,324 24094,0 24226,324 24550,0 24550,324 24874,0 "/>
  <rect class="fil0" x="6687" width="6687" height="6687"/>
  <rect class="fil1" x="10303" y="4775" width="604" height="1587"/>
  <rect class="fil1" x="9206" y="4775" width="604" height="1587"/>
  <rect class="fil2" transform="matrix(0.00118645 0.999999 0.999999 -0.00118564 7010.91 2552.05)" width="810" height="1180"/>
  <rect class="fil3" transform="matrix(0.00114059 0.961341 -0.961341 0.00114059 9002.68 2549.68)" width="843" height="843"/>
  <rect class="fil2" x="8525" y="324" width="3063" height="2225"/>
  <rect class="fil4" x="8955" y="1425" width="191" height="335"/>
  <rect class="fil4" x="9621" y="1425" width="191" height="335"/>
  <rect class="fil5" x="8525" y="2550" width="3063" height="2225"/>
  <polygon class="fil6" points="10103,2416 9785,1961 9146,1961 9146,2416 "/>
  <rect class="fil3" transform="matrix(-0.2501 -0.928239 -0.928239 0.2501 9984.12 3688.73)" width="843" height="843"/>
  <rect class="fil2" transform="matrix(-0.260158 -0.965566 -0.965566 0.260158 9200.32 3899.91)" width="810" height="1180"/>
  <rect class="fil1" x="8525" y="4775" width="3063" height="590"/>
  <polygon class="fil1" points="8525,324 11589,324 11589,0 11264,324 11019,0 10808,324 10652,0 10497,324 10319,0 10057,324 9830,0 9663,324 9339,0 9208,324 8883,0 8883,324 8559,0 "/>
 </g>
</svg>
