<svg xmlns="http://www.w3.org/2000/svg" xml:space="preserve" width="326.54mm" height="81.6349mm" version="1.1"
style="fill-rule:evenodd" viewBox="0 0 7948 1987">
 <!-- @treedbox, treedbox.com -->
 <defs>
  <style type="text/css">
   <![CDATA[
    .fil0 {fill:none}
    .fil5 {fill:black}
    .fil6 {fill:#003399}
    .fil1 {fill:#663333}
    .fil4 {fill:#CC6633}
    .fil2 {fill:#FF6600}
    .fil3 {fill:#FF6666}
   ]]>
  </style>
 </defs>
 <g>
  <rect class="fil0" x="5961" width="1987" height="1987"/>
  <rect class="fil1" x="6492" y="96" width="910" height="661"/>
  <path class="fil2" d="M6492 96c-22,131 -60,164 -133,268 -138,197 -211,-34 -215,24 -25,300 255,350 455,292l-107 -584z"/>
  <path class="fil2" d="M6492 92c-4,-69 549,-78 581,-67 110,39 344,60 342,58 15,131 42,164 94,268 99,197 151,-34 154,24 23,373 -132,201 -355,248 -482,101 -869,363 -816,-531z"/>
  <rect class="fil0" x="3974" width="1987" height="1987"/>
  <rect class="fil0" width="1987" height="1987"/>
  <rect class="fil1" x="4707" y="1419" width="180" height="472"/>
  <rect class="fil1" x="5033" y="1419" width="180" height="472"/>
  <rect class="fil1" transform="matrix(0.865432 -0.501027 0.501026 0.865432 5327.24 1087.04)" width="241" height="351"/>
  <rect class="fil3" transform="matrix(0.831975 -0.481658 0.481658 0.831975 5206.38 878.281)" width="250" height="250"/>
  <rect class="fil1" x="4504" y="96" width="910" height="661"/>
  <rect class="fil4" x="5030" y="424" width="56.8923" height="99.5621"/>
  <rect class="fil4" x="4832" y="424" width="56.8923" height="99.5621"/>
  <rect class="fil3" x="4504" y="758" width="910" height="661"/>
  <polygon class="fil5" points="4818,718 4912,583 5102,583 5102,718 "/>
  <rect class="fil3" transform="matrix(0.831879 0.481824 -0.481824 0.831879 4503.98 757.689)" width="250" height="250"/>
  <rect class="fil1" transform="matrix(0.865332 0.5012 -0.5012 0.865331 4383.08 966.429)" width="241" height="351"/>
  <rect class="fil6" x="4504" y="1419" width="910" height="175"/>
  <rect class="fil1" x="6694" y="1419" width="180" height="472"/>
  <rect class="fil1" x="7020" y="1419" width="180" height="472"/>
  <rect class="fil1" transform="matrix(0.865432 0.501027 -0.501026 0.865432 7490 409.786)" width="241" height="351"/>
  <rect class="fil3" transform="matrix(0.831975 0.481658 0.481658 -0.831975 7193.44 922.027)" width="250" height="250"/>
  <rect class="fil3" x="6492" y="758" width="910" height="661"/>
  <rect class="fil3" transform="matrix(0.831879 -0.481824 -0.481824 -0.831879 6491.05 1042.65)" width="250" height="250"/>
  <rect class="fil1" transform="matrix(0.865332 -0.5012 0.5012 0.865331 6194.39 530.466)" width="241" height="351"/>
  <rect class="fil6" x="6492" y="1419" width="910" height="175"/>
  <rect class="fil1" x="733" y="1419" width="180" height="472"/>
  <rect class="fil1" x="1059" y="1419" width="180" height="472"/>
  <rect class="fil1" transform="matrix(-0.00118645 0.999999 -0.999999 -0.00118564 1890.71 758.392)" width="241" height="351"/>
  <rect class="fil3" transform="matrix(-0.00114059 0.961341 0.961341 0.00114059 1298.81 757.686)" width="250" height="250"/>
  <rect class="fil1" x="530" y="96" width="910" height="661"/>
  <rect class="fil4" x="1256" y="424" width="56.8923" height="99.5621"/>
  <rect class="fil4" x="1058" y="424" width="56.8923" height="99.5621"/>
  <rect class="fil3" x="530" y="758" width="910" height="661"/>
  <polygon class="fil5" points="972,718 1066,583 1256,583 1256,718 "/>
  <rect class="fil3" transform="matrix(0.2501 -0.928239 0.928239 0.2501 1007.16 1096.18)" width="250" height="250"/>
  <rect class="fil1" transform="matrix(0.260158 -0.965566 0.965566 0.260158 1240.08 1158.93)" width="241" height="351"/>
  <rect class="fil6" x="530" y="1419" width="910" height="175"/>
  <path class="fil2" d="M1098 96c17,2 339,1 347,5 5,-70 -382,-79 -427,-67 -152,39 -481,59 -477,58 -22,131 -60,164 -132,267 -138,198 -211,-33 -216,25 -57,683 911,143 905,-288z"/>
  <path class="fil2" d="M1441 105c22,131 60,164 132,267 138,198 211,-33 216,25 25,300 -148,364 -348,306l0 -598z"/>
  <path class="fil2" d="M5415 105c22,131 60,164 132,267 138,198 211,-33 216,25 25,300 -147,364 -348,306l0 -598z"/>
  <path class="fil2" d="M4890 96c12,2 519,1 525,5 4,-70 -550,-79 -582,-67 -109,39 -344,59 -341,58 -16,131 -43,164 -95,267 -98,198 -151,-33 -154,25 -41,683 651,143 647,-288z"/>
  <rect class="fil0" x="1987" width="1987" height="1987"/>
  <rect class="fil1" x="3062" y="1419" width="180" height="472"/>
  <rect class="fil1" x="2736" y="1419" width="180" height="472"/>
  <rect class="fil1" transform="matrix(0.00118645 0.999999 0.999999 -0.00118564 2083.43 758.392)" width="241" height="351"/>
  <rect class="fil3" transform="matrix(0.00114059 0.961341 -0.961341 0.00114059 2675.32 757.686)" width="250" height="250"/>
  <rect class="fil1" x="2533" y="96" width="910" height="661"/>
  <rect class="fil4" x="2661" y="424" width="56.8923" height="99.5621"/>
  <rect class="fil4" x="2859" y="424" width="56.8923" height="99.5621"/>
  <rect class="fil3" x="2533" y="758" width="910" height="661"/>
  <polygon class="fil5" points="3002,718 2908,583 2718,583 2718,718 "/>
  <rect class="fil3" transform="matrix(-0.2501 -0.928239 -0.928239 0.2501 2966.98 1096.18)" width="250" height="250"/>
  <rect class="fil1" transform="matrix(-0.260158 -0.965566 -0.965566 0.260158 2734.06 1158.93)" width="241" height="351"/>
  <rect class="fil6" x="2533" y="1419" width="910" height="175"/>
  <path class="fil2" d="M2876 96c-17,2 -339,1 -347,5 -5,-70 382,-79 427,-67 153,39 481,59 477,58 22,131 60,164 132,267 138,198 211,-33 216,25 57,683 -911,143 -905,-288z"/>
  <path class="fil2" d="M2533 105c-22,131 -59,164 -132,267 -138,198 -211,-33 -216,25 -25,300 148,364 348,306l0 -598z"/>
 </g>
</svg>
