<svg xmlns="http://www.w3.org/2000/svg" xml:space="preserve" width="326.54mm" height="82.0134mm" version="1.1"
style="fill-rule:evenodd" viewBox="0 0 7948 1996">
 <!-- @treedbox, treedbox.com -->
 <defs>
  <style type="text/css">
   <![CDATA[
    .fil0 {fill:none}
    .fil5 {fill:black}
    .fil2 {fill:#663300}
    .fil4 {fill:gray}
    .fil6 {fill:#CCCCCC}
    .fil3 {fill:#FF6600}
    .fil1 {fill:white}
   ]]>
  </style>
 </defs>
 <g>
  <rect class="fil0" x="3974" y="9" width="1987" height="1987"/>
  <rect class="fil0" x="5961" y="9" width="1987" height="1987"/>
  <rect class="fil0" y="9" width="1987" height="1987"/>
  <rect class="fil1" x="4707" y="1428" width="180" height="472"/>
  <rect class="fil1" x="5033" y="1428" width="180" height="472"/>
  <rect class="fil2" transform="matrix(0.865432 -0.501027 0.501026 0.865432 5327.24 1096.25)" width="241" height="351"/>
  <rect class="fil3" transform="matrix(0.831975 -0.481658 0.481658 0.831975 5206.38 887.494)" width="250" height="250"/>
  <rect class="fil2" x="4504" y="106" width="910" height="661"/>
  <rect class="fil4" x="5030" y="433" width="56.8923" height="99.5621"/>
  <rect class="fil4" x="4832" y="433" width="56.8923" height="99.5621"/>
  <rect class="fil3" x="4504" y="767" width="910" height="661"/>
  <polygon class="fil5" points="4818,727 4912,592 5102,592 5102,727 "/>
  <rect class="fil3" transform="matrix(0.831879 0.481824 -0.481824 0.831879 4503.98 766.902)" width="250" height="250"/>
  <rect class="fil2" transform="matrix(0.865332 0.5012 -0.5012 0.865331 4383.08 975.642)" width="241" height="351"/>
  <rect class="fil1" x="4504" y="1428" width="910" height="175"/>
  <rect class="fil1" x="6694" y="1428" width="180" height="472"/>
  <rect class="fil1" x="7020" y="1428" width="180" height="472"/>
  <rect class="fil2" transform="matrix(0.865432 0.501027 -0.501026 0.865432 7490 418.999)" width="241" height="351"/>
  <rect class="fil3" transform="matrix(0.831975 0.481658 0.481658 -0.831975 7193.44 931.24)" width="250" height="250"/>
  <rect class="fil2" x="6492" y="106" width="910" height="661"/>
  <rect class="fil3" x="6492" y="767" width="910" height="661"/>
  <rect class="fil3" transform="matrix(0.831879 -0.481824 -0.481824 -0.831879 6491.05 1051.87)" width="250" height="250"/>
  <rect class="fil2" transform="matrix(0.865332 -0.5012 0.5012 0.865331 6194.39 539.679)" width="241" height="351"/>
  <rect class="fil1" x="6492" y="1428" width="910" height="175"/>
  <rect class="fil1" x="733" y="1428" width="180" height="472"/>
  <rect class="fil1" x="1059" y="1428" width="180" height="472"/>
  <rect class="fil2" transform="matrix(-0.00118645 0.999999 -0.999999 -0.00118564 1890.71 767.605)" width="241" height="351"/>
  <rect class="fil3" transform="matrix(-0.00114059 0.961341 0.961341 0.00114059 1298.81 766.899)" width="250" height="250"/>
  <rect class="fil2" x="530" y="106" width="910" height="661"/>
  <rect class="fil4" x="1256" y="433" width="56.8923" height="99.5621"/>
  <rect class="fil4" x="1058" y="433" width="56.8923" height="99.5621"/>
  <rect class="fil3" x="530" y="767" width="910" height="661"/>
  <polygon class="fil5" points="972,727 1066,592 1256,592 1256,727 "/>
  <rect class="fil3" transform="matrix(0.2501 -0.928239 0.928239 0.2501 1007.16 1105.39)" width="250" height="250"/>
  <rect class="fil2" transform="matrix(0.260158 -0.965566 0.965566 0.260158 1240.08 1168.15)" width="241" height="351"/>
  <rect class="fil1" x="530" y="1428" width="910" height="175"/>
  <path class="fil6" d="M485 483c25,23 269,-56 235,-64 -205,-47 -203,1 95,-80 115,-31 -149,-69 -86,-73 141,-9 255,-9 392,-34 1,-1 -394,-14 -146,-28 13,0 687,6 598,-24 -101,-33 -225,-8 -116,-51 139,-54 -54,-37 -91,-41 -33,-3 55,-48 -63,-22 -114,25 -45,-48 -139,-9 -76,32 -106,-86 -118,18 -51,15 -168,-63 -111,-2 -23,1 -324,-35 -269,-19 69,21 103,46 11,22 -1,-1 -223,-36 -168,-8 153,76 -189,-45 -44,53 22,15 -14,17 33,90 25,39 -223,-75 -88,67 21,22 124,139 75,172 -12,7 14,46 0,33z"/>
  <path class="fil6" d="M4475 451c13,24 146,-55 128,-63 -112,-47 -111,0 51,-80 63,-31 -81,-69 -46,-73 77,-9 139,-9 214,-34 0,-1 -216,-14 -80,-28 7,-1 374,5 326,-24 -55,-33 -123,-9 -63,-51 75,-54 -30,-37 -50,-41 -18,-3 30,-48 -35,-22 -61,25 -24,-48 -75,-9 -42,32 -58,-86 -65,18 -27,15 -91,-63 -60,-2 -13,1 -177,-35 -147,-19 38,21 56,46 6,21 0,0 -122,-35 -91,-8 83,77 -103,-44 -24,54 12,15 -8,17 18,90 13,39 -122,-75 -48,67 11,22 67,139 40,172 -6,7 8,45 1,32z"/>
  <path class="fil6" d="M5415 451c-14,24 -147,-55 -128,-63 112,-47 110,0 -52,-80 -63,-31 81,-69 47,-73 -77,-9 -139,-9 -214,-34 0,-1 215,-14 80,-28 -7,-1 -375,5 -326,-24 55,-33 122,-9 63,-51 -76,-54 29,-37 49,-41 19,-3 -30,-48 35,-22 62,25 24,-48 76,-9 41,32 57,-86 64,18 28,15 92,-63 60,-2 13,1 177,-35 147,-19 -37,21 -56,46 -6,21 1,0 122,-35 92,-8 -83,77 103,-44 24,54 -12,15 7,17 -18,90 -14,39 121,-75 48,67 -12,22 -68,139 -41,172 6,7 -8,45 0,32z"/>
  <path class="fil6" d="M6477 451c13,24 146,-55 128,-63 -112,-47 -111,0 51,-80 63,-31 -81,-69 -46,-73 77,-9 139,-9 214,-34 0,-1 -216,-14 -80,-28 7,-1 374,5 326,-24 -55,-33 -123,-9 -63,-51 75,-54 -30,-37 -50,-41 -18,-3 30,-48 -35,-22 -61,25 -24,-48 -75,-9 -42,32 -58,-86 -65,18 -27,15 -91,-63 -60,-2 -13,1 -177,-35 -147,-19 38,21 56,46 6,21 0,0 -122,-35 -91,-8 83,77 -103,-44 -24,54 12,15 -8,17 18,90 13,39 -122,-75 -48,67 11,22 67,139 40,172 -6,7 8,45 1,32z"/>
  <path class="fil6" d="M7417 451c-14,24 -147,-55 -128,-63 112,-47 110,0 -52,-80 -63,-31 81,-69 47,-73 -77,-9 -139,-9 -214,-34 0,-1 215,-14 80,-28 -7,-1 -375,5 -326,-24 55,-33 122,-9 63,-51 -76,-54 29,-37 49,-41 19,-3 -30,-48 35,-22 62,25 24,-48 76,-9 41,32 57,-86 64,18 28,15 92,-63 60,-2 13,1 177,-35 147,-19 -37,21 -56,46 -6,21 1,0 122,-35 92,-8 -83,77 103,-44 24,54 -12,15 7,17 -18,90 -14,39 121,-75 48,67 -12,22 -68,139 -41,172 6,7 -8,45 0,32z"/>
  <path class="fil6" d="M6744 106c-5,60 -79,35 -129,88 -13,14 -122,113 -92,124 52,18 -79,19 14,85 25,18 -135,51 93,78 70,8 -102,37 114,37 332,0 13,34 0,89 -4,19 189,1 217,11 -27,35 -179,118 15,71 65,-16 52,-159 73,13 6,42 56,-80 84,-113 63,-72 7,-42 -20,-82 46,-30 123,123 85,-64 -8,-42 94,59 121,24 39,-51 -13,-104 53,-116 0,0 19,27 3,-25 -10,-34 -75,-77 -82,-88 138,-145 -277,-86 -304,-113 -20,-20 -219,-53 -230,5l-15 -24z"/>
  <rect class="fil0" x="1987" y="9" width="1987" height="1987"/>
  <rect class="fil1" x="3062" y="1428" width="180" height="472"/>
  <rect class="fil1" x="2736" y="1428" width="180" height="472"/>
  <rect class="fil2" transform="matrix(0.00118645 0.999999 0.999999 -0.00118564 2083.43 767.605)" width="241" height="351"/>
  <rect class="fil3" transform="matrix(0.00114059 0.961341 -0.961341 0.00114059 2675.32 766.899)" width="250" height="250"/>
  <rect class="fil2" x="2533" y="106" width="910" height="661"/>
  <rect class="fil4" x="2661" y="433" width="56.8923" height="99.5621"/>
  <rect class="fil4" x="2859" y="433" width="56.8923" height="99.5621"/>
  <rect class="fil3" x="2533" y="767" width="910" height="661"/>
  <polygon class="fil5" points="3002,727 2908,592 2718,592 2718,727 "/>
  <rect class="fil3" transform="matrix(-0.2501 -0.928239 -0.928239 0.2501 2966.98 1105.39)" width="250" height="250"/>
  <rect class="fil2" transform="matrix(-0.260158 -0.965566 -0.965566 0.260158 2734.06 1168.15)" width="241" height="351"/>
  <rect class="fil1" x="2533" y="1428" width="910" height="175"/>
  <path class="fil6" d="M3489 483c-25,23 -269,-56 -235,-64 206,-47 203,1 -95,-80 -115,-31 149,-69 86,-73 -141,-9 -255,-9 -392,-34 -1,-1 394,-14 146,-28 -13,0 -687,6 -598,-24 101,-33 225,-8 116,-51 -139,-54 54,-37 91,-41 33,-3 -55,-48 63,-22 114,25 45,-48 139,-9 77,32 106,-86 118,18 51,15 168,-63 111,-2 24,1 324,-35 270,-19 -70,21 -103,46 -11,22 0,-1 223,-36 167,-8 -152,76 189,-45 44,53 -22,15 14,17 -33,90 -25,39 223,-75 88,67 -21,22 -124,139 -75,172 12,7 -13,46 0,33z"/>
 </g>
</svg>
