<svg xmlns="http://www.w3.org/2000/svg" xml:space="preserve" width="326.54mm" height="81.6349mm" version="1.1"
style="fill-rule:evenodd" viewBox="0 0 26747 6687">
 <!-- @treedbox, treedbox.com -->
 <defs>
  <style type="text/css">
   <![CDATA[
    .fil0 {fill:none}
    .fil5 {fill:black}
    .fil4 {fill:aqua}
    .fil3 {fill:#33CC33}
    .fil1 {fill:#669933}
    .fil2 {fill:#FFCC99}
    .fil6 {fill:yellow}
   ]]>
  </style>
 </defs>
 <g>
  <rect class="fil0" x="13373" width="6687" height="6687"/>
  <rect class="fil0" x="20060" width="6687" height="6687"/>
  <rect class="fil0" width="6687" height="6687"/>
  <rect class="fil1" x="15839" y="4775" width="604" height="1587"/>
  <rect class="fil1" x="16936" y="4775" width="604" height="1587"/>
  <rect class="fil2" transform="matrix(0.865432 -0.501027 0.501026 0.865432 17926.6 3657.98)" width="810" height="1180"/>
  <rect class="fil3" transform="matrix(0.831975 -0.481658 0.481658 0.831975 17519.9 2955.49)" width="843" height="843"/>
  <rect class="fil2" x="15158" y="324" width="3063" height="2225"/>
  <rect class="fil4" x="16927" y="1425" width="191" height="335"/>
  <rect class="fil4" x="16260" y="1425" width="191" height="335"/>
  <rect class="fil3" x="15158" y="2550" width="3063" height="2225"/>
  <polygon class="fil5" points="16211,2416 16529,1961 17168,1961 17168,2416 "/>
  <rect class="fil3" transform="matrix(0.831879 0.481824 -0.481824 0.831879 15156.3 2549.69)" width="843" height="843"/>
  <rect class="fil2" transform="matrix(0.865332 0.5012 -0.5012 0.865331 14749.4 3252.11)" width="810" height="1180"/>
  <rect class="fil1" x="15158" y="4775" width="3063" height="590"/>
  <rect class="fil1" x="22525" y="4775" width="604" height="1587"/>
  <rect class="fil1" x="23623" y="4775" width="604" height="1587"/>
  <rect class="fil2" transform="matrix(0.865432 0.501027 -0.501026 0.865432 25204.5 1378.96)" width="810" height="1180"/>
  <rect class="fil3" transform="matrix(0.831975 0.481658 0.481658 -0.831975 24206.5 3102.7)" width="843" height="843"/>
  <rect class="fil2" x="21845" y="324" width="3063" height="2225"/>
  <rect class="fil3" x="21845" y="2550" width="3063" height="2225"/>
  <rect class="fil3" transform="matrix(0.831879 -0.481824 -0.481824 -0.831879 21842.9 3508.61)" width="843" height="843"/>
  <rect class="fil2" transform="matrix(0.865332 -0.5012 0.5012 0.865331 20844.6 1785.06)" width="810" height="1180"/>
  <rect class="fil1" x="21845" y="4775" width="3063" height="590"/>
  <rect class="fil1" x="2466" y="4775" width="604" height="1587"/>
  <rect class="fil1" x="3563" y="4775" width="604" height="1587"/>
  <rect class="fil2" transform="matrix(-0.00118645 0.999999 -0.999999 -0.00118564 6362.38 2552.05)" width="810" height="1180"/>
  <rect class="fil3" transform="matrix(-0.00114059 0.961341 0.961341 0.00114059 4370.61 2549.68)" width="843" height="843"/>
  <rect class="fil2" x="1785" y="324" width="3063" height="2225"/>
  <rect class="fil4" x="4227" y="1425" width="191" height="335"/>
  <rect class="fil4" x="3560" y="1425" width="191" height="335"/>
  <rect class="fil3" x="1785" y="2550" width="3063" height="2225"/>
  <polygon class="fil5" points="3271,2416 3589,1961 4227,1961 4227,2416 "/>
  <rect class="fil3" transform="matrix(0.2501 -0.928239 0.928239 0.2501 3389.18 3688.73)" width="843" height="843"/>
  <rect class="fil2" transform="matrix(0.260158 -0.965566 0.965566 0.260158 4172.97 3899.91)" width="810" height="1180"/>
  <rect class="fil1" x="1785" y="4775" width="3063" height="590"/>
  <path class="fil6" d="M4848 1437c0,-371 0,-742 0,-1113 -307,0 -614,0 -921,0 560,214 837,604 921,1113z"/>
  <path class="fil6" d="M1785 1741c0,-472 0,-944 0,-1417 -40,-66 -85,-147 -172,-324 1198,0 2397,0 3595,0 -584,154 -1090,387 -1456,761 -748,58 -963,-55 -984,-232 -135,558 -500,932 -983,1212z"/>
  <path class="fil6" d="M23376 2550c-742,-666 -1453,-1342 -1531,-2226 1021,0 2042,0 3063,0 -27,870 -712,1566 -1532,2226z"/>
  <path class="fil6" d="M15966 324c-270,0 -539,0 -808,0 -108,-108 -216,-216 -324,-324 1244,0 2489,0 3733,0 -108,108 -216,216 -324,324 -288,0 -577,0 -865,0 -471,237 -944,318 -1412,0z"/>
  <path class="fil6" d="M18243 324c-1028,0 -2057,0 -3085,0 0,428 0,856 0,1284 210,-405 376,-823 404,-1284 749,0 1499,0 2249,0 27,419 176,785 410,1113 8,-371 15,-742 22,-1113z"/>
  <path class="fil6" d="M22641 324c-269,0 -538,0 -807,0 -109,-108 -217,-216 -325,-324 1245,0 2490,0 3734,0 -108,108 -216,216 -324,324 -288,0 -577,0 -865,0 -471,237 -944,318 -1413,0z"/>
  <rect class="fil0" x="6687" width="6687" height="6687"/>
  <rect class="fil1" x="10303" y="4775" width="604" height="1587"/>
  <rect class="fil1" x="9206" y="4775" width="604" height="1587"/>
  <rect class="fil2" transform="matrix(0.00118645 0.999999 0.999999 -0.00118564 7010.91 2552.05)" width="810" height="1180"/>
  <rect class="fil3" transform="matrix(0.00114059 0.961341 -0.961341 0.00114059 9002.68 2549.68)" width="843" height="843"/>
  <rect class="fil2" x="8525" y="324" width="3063" height="2225"/>
  <rect class="fil4" x="8955" y="1425" width="191" height="335"/>
  <rect class="fil4" x="9621" y="1425" width="191" height="335"/>
  <rect class="fil3" x="8525" y="2550" width="3063" height="2225"/>
  <polygon class="fil5" points="10103,2416 9785,1961 9146,1961 9146,2416 "/>
  <rect class="fil3" transform="matrix(-0.2501 -0.928239 -0.928239 0.2501 9984.12 3688.73)" width="843" height="843"/>
  <rect class="fil2" transform="matrix(-0.260158 -0.965566 -0.965566 0.260158 9200.32 3899.91)" width="810" height="1180"/>
  <rect class="fil1" x="8525" y="4775" width="3063" height="590"/>
  <path class="fil6" d="M8525 1437c0,-371 0,-742 0,-1113 307,0 615,0 922,0 -561,214 -837,604 -922,1113z"/>
  <path class="fil6" d="M11589 1741c0,-472 0,-944 0,-1417 39,-66 85,-147 171,-324 -1198,0 -2396,0 -3595,0 584,154 1090,387 1456,761 749,58 963,-55 985,-232 134,558 500,932 983,1212z"/>
 </g>
</svg>
