<svg xmlns="http://www.w3.org/2000/svg" xml:space="preserve" width="326.54mm" height="82.0134mm" version="1.1"
style="fill-rule:evenodd" viewBox="0 0 26747 6718">
 <!-- @treedbox, treedbox.com -->
 <defs>
  <style type="text/css">
   <![CDATA[
    .fil0 {fill:none}
    .fil5 {fill:black}
    .fil4 {fill:gray}
    .fil3 {fill:#990000}
    .fil6 {fill:#CCCCCC}
    .fil2 {fill:#FFCC99}
    .fil1 {fill:white}
   ]]>
  </style>
 </defs>
 <g>
  <rect class="fil0" x="13373" y="31" width="6687" height="6687"/>
  <rect class="fil0" x="20060" y="31" width="6687" height="6687"/>
  <rect class="fil0" y="31" width="6687" height="6687"/>
  <rect class="fil1" x="15839" y="4806" width="604" height="1587"/>
  <rect class="fil1" x="16936" y="4806" width="604" height="1587"/>
  <rect class="fil2" transform="matrix(0.865432 -0.501027 0.501026 0.865432 17926.6 3688.99)" width="810" height="1180"/>
  <rect class="fil3" transform="matrix(0.831975 -0.481658 0.481658 0.831975 17519.9 2986.49)" width="843" height="843"/>
  <rect class="fil2" x="15158" y="355" width="3063" height="2225"/>
  <rect class="fil4" x="16927" y="1456" width="191" height="335"/>
  <rect class="fil4" x="16260" y="1456" width="191" height="335"/>
  <rect class="fil3" x="15158" y="2581" width="3063" height="2225"/>
  <polygon class="fil5" points="16211,2447 16529,1992 17168,1992 17168,2447 "/>
  <rect class="fil3" transform="matrix(0.831879 0.481824 -0.481824 0.831879 15156.3 2580.69)" width="843" height="843"/>
  <rect class="fil2" transform="matrix(0.865332 0.5012 -0.5012 0.865331 14749.4 3283.12)" width="810" height="1180"/>
  <rect class="fil1" x="15158" y="4806" width="3063" height="590"/>
  <rect class="fil1" x="22525" y="4806" width="604" height="1587"/>
  <rect class="fil1" x="23623" y="4806" width="604" height="1587"/>
  <rect class="fil2" transform="matrix(0.865432 0.501027 -0.501026 0.865432 25204.5 1409.97)" width="810" height="1180"/>
  <rect class="fil3" transform="matrix(0.831975 0.481658 0.481658 -0.831975 24206.5 3133.7)" width="843" height="843"/>
  <rect class="fil2" x="21845" y="355" width="3063" height="2225"/>
  <rect class="fil3" x="21845" y="2581" width="3063" height="2225"/>
  <rect class="fil3" transform="matrix(0.831879 -0.481824 -0.481824 -0.831879 21842.9 3539.61)" width="843" height="843"/>
  <rect class="fil2" transform="matrix(0.865332 -0.5012 0.5012 0.865331 20844.6 1816.07)" width="810" height="1180"/>
  <rect class="fil1" x="21845" y="4806" width="3063" height="590"/>
  <rect class="fil1" x="2466" y="4806" width="604" height="1587"/>
  <rect class="fil1" x="3563" y="4806" width="604" height="1587"/>
  <rect class="fil2" transform="matrix(-0.00118645 0.999999 -0.999999 -0.00118564 6362.38 2583.05)" width="810" height="1180"/>
  <rect class="fil3" transform="matrix(-0.00114059 0.961341 0.961341 0.00114059 4370.61 2580.68)" width="843" height="843"/>
  <rect class="fil2" x="1785" y="355" width="3063" height="2225"/>
  <rect class="fil4" x="4227" y="1456" width="191" height="335"/>
  <rect class="fil4" x="3560" y="1456" width="191" height="335"/>
  <rect class="fil3" x="1785" y="2581" width="3063" height="2225"/>
  <polygon class="fil5" points="3271,2447 3589,1992 4227,1992 4227,2447 "/>
  <rect class="fil3" transform="matrix(0.2501 -0.928239 0.928239 0.2501 3389.18 3719.74)" width="843" height="843"/>
  <rect class="fil2" transform="matrix(0.260158 -0.965566 0.965566 0.260158 4172.97 3930.91)" width="810" height="1180"/>
  <rect class="fil1" x="1785" y="4806" width="3063" height="590"/>
  <path class="fil6" d="M1632 1624c83,79 904,-188 791,-214 -691,-158 -683,2 319,-268 389,-105 -500,-233 -289,-246 475,-30 859,-31 1320,-114 2,-5 -1328,-48 -492,-95 44,-2 2312,18 2013,-80 -342,-112 -758,-30 -391,-173 468,-182 -182,-124 -306,-136 -112,-11 186,-164 -213,-76 -381,85 -150,-160 -468,-29 -256,106 -355,-291 -396,60 -172,51 -565,-212 -373,-8 -79,6 -1090,-118 -907,-62 233,71 346,154 37,71 -3,0 -751,-120 -564,-27 513,256 -635,-150 -147,181 72,50 -48,58 110,302 85,130 -751,-253 -296,225 71,76 416,469 251,578 -39,26 47,154 1,111z"/>
  <path class="fil6" d="M15057 1519c46,79 493,-188 431,-214 -376,-158 -372,2 174,-268 213,-105 -272,-233 -157,-246 259,-30 468,-31 720,-114 1,-4 -724,-47 -269,-94 24,-3 1261,18 1098,-81 -186,-112 -414,-29 -213,-173 255,-182 -99,-124 -167,-136 -61,-11 101,-164 -116,-75 -208,84 -82,-161 -255,-30 -140,106 -194,-291 -216,61 -94,50 -309,-213 -204,-9 -43,6 -594,-118 -494,-62 127,71 189,154 20,72 -1,-1 -409,-120 -308,-27 280,256 -346,-151 -80,180 40,50 -26,58 60,302 46,130 -409,-253 -161,226 39,75 227,469 137,577 -21,26 25,155 0,111z"/>
  <path class="fil6" d="M18221 1519c-45,79 -493,-188 -431,-214 377,-158 373,2 -174,-268 -212,-105 273,-233 158,-246 -259,-30 -469,-31 -720,-114 -1,-4 724,-47 268,-94 -23,-3 -1260,18 -1097,-81 186,-112 413,-29 213,-173 -255,-182 99,-124 167,-136 61,-11 -102,-164 116,-75 208,84 82,-161 255,-30 140,106 194,-291 216,61 94,50 308,-213 204,-9 43,6 594,-118 494,-62 -127,71 -189,154 -20,72 1,-1 409,-120 307,-27 -280,256 346,-151 81,180 -40,50 25,58 -61,302 -46,130 410,-253 162,226 -39,75 -227,469 -137,577 21,26 -26,155 -1,111z"/>
  <path class="fil6" d="M21794 1519c46,79 493,-188 431,-214 -377,-158 -372,2 174,-268 212,-105 -272,-233 -157,-246 259,-30 468,-31 720,-114 1,-4 -724,-47 -269,-94 24,-3 1261,18 1098,-81 -186,-112 -414,-29 -213,-173 255,-182 -99,-124 -167,-136 -61,-11 101,-164 -117,-75 -207,84 -81,-161 -255,-30 -139,106 -193,-291 -215,61 -94,50 -309,-213 -204,-9 -43,6 -594,-118 -494,-62 127,71 188,154 20,72 -2,-1 -409,-120 -308,-27 280,256 -346,-151 -80,180 40,50 -26,58 60,302 46,130 -409,-253 -161,226 38,75 227,469 137,577 -21,26 25,155 0,111z"/>
  <path class="fil6" d="M24958 1519c-45,79 -493,-188 -431,-214 377,-158 372,2 -174,-268 -212,-105 273,-233 157,-246 -258,-30 -468,-31 -719,-114 -1,-4 724,-47 268,-94 -23,-3 -1260,18 -1097,-81 186,-112 413,-29 213,-173 -255,-182 99,-124 167,-136 61,-11 -102,-164 116,-75 208,84 82,-161 255,-30 140,106 194,-291 216,61 94,50 308,-213 204,-9 43,6 594,-118 494,-62 -127,71 -189,154 -20,72 1,-1 409,-120 307,-27 -280,256 346,-151 81,180 -40,50 25,58 -61,302 -46,130 410,-253 162,226 -39,75 -227,469 -137,577 21,26 -26,155 -1,111z"/>
  <path class="fil6" d="M22694 355c-15,202 -265,120 -432,296 -45,47 -414,383 -311,419 174,62 -268,65 45,287 86,61 -454,171 316,262 233,28 -343,123 382,123 1118,1 44,114 0,301 -14,62 636,2 730,36 -92,117 -601,398 52,239 219,-54 173,-534 245,44 18,141 186,-270 281,-379 212,-243 24,-142 -66,-278 154,-99 415,415 286,-213 -29,-142 316,198 406,80 131,-172 -44,-350 179,-390 0,-1 63,90 10,-85 -35,-114 -253,-260 -277,-295 466,-489 -931,-291 -1021,-382 -66,-67 -736,-177 -776,17l-49 -82z"/>
  <rect class="fil0" x="6687" y="31" width="6687" height="6687"/>
  <rect class="fil1" x="10303" y="4806" width="604" height="1587"/>
  <rect class="fil1" x="9206" y="4806" width="604" height="1587"/>
  <rect class="fil2" transform="matrix(0.00118645 0.999999 0.999999 -0.00118564 7010.91 2583.05)" width="810" height="1180"/>
  <rect class="fil3" transform="matrix(0.00114059 0.961341 -0.961341 0.00114059 9002.68 2580.68)" width="843" height="843"/>
  <rect class="fil2" x="8525" y="355" width="3063" height="2225"/>
  <rect class="fil4" x="8955" y="1456" width="191" height="335"/>
  <rect class="fil4" x="9621" y="1456" width="191" height="335"/>
  <rect class="fil3" x="8525" y="2581" width="3063" height="2225"/>
  <polygon class="fil5" points="10103,2447 9785,1992 9146,1992 9146,2447 "/>
  <rect class="fil3" transform="matrix(-0.2501 -0.928239 -0.928239 0.2501 9984.12 3719.74)" width="843" height="843"/>
  <rect class="fil2" transform="matrix(-0.260158 -0.965566 -0.965566 0.260158 9200.32 3930.91)" width="810" height="1180"/>
  <rect class="fil1" x="8525" y="4806" width="3063" height="590"/>
  <path class="fil6" d="M11741 1624c-83,79 -904,-188 -790,-214 691,-158 682,2 -320,-268 -389,-105 501,-233 289,-246 -475,-30 -859,-31 -1320,-114 -2,-5 1328,-48 492,-95 -43,-2 -2311,18 -2013,-80 342,-112 759,-30 391,-173 -468,-182 182,-124 306,-136 113,-11 -186,-164 214,-76 381,85 149,-160 467,-29 257,106 356,-291 396,60 172,51 566,-212 374,-8 79,6 1089,-118 907,-62 -233,71 -347,154 -37,71 2,0 750,-120 563,-27 -513,256 635,-150 148,181 -73,50 47,58 -111,302 -84,130 751,-253 297,225 -72,76 -417,469 -252,578 39,26 -47,154 -1,111z"/>
 </g>
</svg>
