<svg xmlns="http://www.w3.org/2000/svg" xml:space="preserve" width="326.54mm" height="81.6349mm" version="1.1"
style="fill-rule:evenodd" viewBox="0 0 7948 1987">
 <!-- @treedbox, treedbox.com -->
 <defs>
  <style type="text/css">
   <![CDATA[
    .fil0 {fill:none}
    .fil4 {fill:black}
    .fil1 {fill:black}
    .fil2 {fill:#996633}
    .fil3 {fill:red}
   ]]>
  </style>
 </defs>
 <g>
  <rect class="fil0" width="1987" height="1987"/>
  <rect class="fil0" x="3974" width="1987" height="1987"/>
  <rect class="fil0" x="5961" width="1987" height="1987"/>
  <rect class="fil1" x="4707" y="1419" width="180" height="472"/>
  <rect class="fil1" x="5033" y="1419" width="180" height="472"/>
  <rect class="fil2" transform="matrix(0.865432 -0.501027 0.501026 0.865432 5327.24 1087.04)" width="241" height="351"/>
  <rect class="fil1" transform="matrix(0.831975 -0.481658 0.481658 0.831975 5206.38 878.281)" width="250" height="250"/>
  <rect class="fil2" x="4504" y="96" width="910" height="661"/>
  <rect class="fil1" x="5030" y="424" width="56.8923" height="99.5621"/>
  <rect class="fil1" x="4832" y="424" width="56.8923" height="99.5621"/>
  <rect class="fil3" x="4504" y="758" width="910" height="661"/>
  <polygon class="fil4" points="4818,718 4912,583 5102,583 5102,718 "/>
  <rect class="fil1" transform="matrix(0.831879 0.481824 -0.481824 0.831879 4503.98 757.689)" width="250" height="250"/>
  <rect class="fil2" transform="matrix(0.865332 0.5012 -0.5012 0.865331 4383.08 966.429)" width="241" height="351"/>
  <rect class="fil1" x="4504" y="1419" width="910" height="175"/>
  <rect class="fil1" x="6694" y="1419" width="180" height="472"/>
  <rect class="fil1" x="7020" y="1419" width="180" height="472"/>
  <rect class="fil2" transform="matrix(0.865432 0.501027 -0.501026 0.865432 7490 409.786)" width="241" height="351"/>
  <rect class="fil1" transform="matrix(0.831975 0.481658 0.481658 -0.831975 7193.44 922.027)" width="250" height="250"/>
  <rect class="fil2" x="6492" y="96" width="910" height="661"/>
  <rect class="fil3" x="6492" y="758" width="910" height="661"/>
  <rect class="fil1" transform="matrix(0.831879 -0.481824 -0.481824 -0.831879 6491.05 1042.65)" width="250" height="250"/>
  <rect class="fil2" transform="matrix(0.865332 -0.5012 0.5012 0.865331 6194.39 530.466)" width="241" height="351"/>
  <rect class="fil1" x="6492" y="1419" width="910" height="175"/>
  <rect class="fil1" x="733" y="1419" width="180" height="472"/>
  <rect class="fil1" x="1059" y="1419" width="180" height="472"/>
  <rect class="fil2" transform="matrix(-0.00118645 0.999999 -0.999999 -0.00118564 1890.71 758.392)" width="241" height="351"/>
  <rect class="fil1" transform="matrix(-0.00114059 0.961341 0.961341 0.00114059 1298.81 757.686)" width="250" height="250"/>
  <rect class="fil2" x="530" y="96" width="910" height="661"/>
  <rect class="fil1" x="1256" y="424" width="56.8923" height="99.5621"/>
  <rect class="fil1" x="1058" y="424" width="56.8923" height="99.5621"/>
  <rect class="fil3" x="530" y="758" width="910" height="661"/>
  <polygon class="fil4" points="972,718 1066,583 1256,583 1256,718 "/>
  <rect class="fil1" transform="matrix(0.2501 -0.928239 0.928239 0.2501 1007.16 1096.18)" width="250" height="250"/>
  <rect class="fil2" transform="matrix(0.260158 -0.965566 0.965566 0.260158 1240.08 1158.93)" width="241" height="351"/>
  <rect class="fil1" x="530" y="1419" width="910" height="175"/>
  <circle class="fil1" cx="598" cy="107" r="68"/>
  <circle class="fil1" cx="727" cy="107" r="68"/>
  <circle class="fil1" cx="856" cy="107" r="68"/>
  <circle class="fil1" cx="986" cy="107" r="68"/>
  <circle class="fil1" cx="1115" cy="107" r="68"/>
  <circle class="fil1" cx="1244" cy="107" r="68"/>
  <circle class="fil1" cx="1373" cy="107" r="68"/>
  <circle class="fil1" cx="530" cy="164" r="68"/>
  <circle class="fil1" cx="530" cy="280" r="68"/>
  <circle class="fil1" cx="530" cy="397" r="68"/>
  <circle class="fil1" cx="530" cy="513" r="68"/>
  <circle class="fil1" cx="598" cy="454" r="68"/>
  <circle class="fil1" cx="598" cy="345" r="68"/>
  <circle class="fil1" cx="598" cy="236" r="68"/>
  <circle class="fil1" cx="662" cy="213" r="68"/>
  <circle class="fil1" cx="789" cy="175" r="68"/>
  <circle class="fil1" cx="666" cy="314" r="68"/>
  <circle class="fil1" cx="733" cy="261" r="68"/>
  <circle class="fil1" cx="4579" cy="107" r="68"/>
  <circle class="fil1" cx="4708" cy="107" r="68"/>
  <circle class="fil1" cx="4837" cy="107" r="68"/>
  <circle class="fil1" cx="4966" cy="107" r="68"/>
  <circle class="fil1" cx="5095" cy="107" r="68"/>
  <circle class="fil1" cx="5224" cy="107" r="68"/>
  <circle class="fil1" cx="5354" cy="107" r="68"/>
  <circle class="fil1" cx="4511" cy="164" r="68"/>
  <circle class="fil1" cx="4646" cy="143" r="68"/>
  <circle class="fil1" cx="6568" cy="107" r="68"/>
  <circle class="fil1" cx="6697" cy="107" r="68"/>
  <circle class="fil1" cx="6826" cy="107" r="68"/>
  <circle class="fil1" cx="6955" cy="107" r="68"/>
  <circle class="fil1" cx="7084" cy="107" r="68"/>
  <circle class="fil1" cx="7213" cy="107" r="68"/>
  <circle class="fil1" cx="7343" cy="107" r="68"/>
  <circle class="fil1" cx="5280" cy="164" r="68"/>
  <circle class="fil1" cx="5395" cy="216" r="68"/>
  <path class="fil1" d="M7412 107c-303,-4 -607,-7 -911,-11 17,226 151,448 446,662 251,-187 416,-401 465,-651z"/>
  <circle class="fil1" cx="6515" cy="150" r="68"/>
  <circle class="fil1" cx="6536" cy="264" r="68"/>
  <circle class="fil1" cx="6583" cy="371" r="68"/>
  <circle class="fil1" cx="6650" cy="474" r="68"/>
  <circle class="fil1" cx="6726" cy="566" r="68"/>
  <circle class="fil1" cx="6818" cy="654" r="68"/>
  <circle class="fil1" cx="6947" cy="723" r="68"/>
  <circle class="fil1" cx="7049" cy="676" r="68"/>
  <circle class="fil1" cx="7164" cy="608" r="68"/>
  <circle class="fil1" cx="7217" cy="505" r="68"/>
  <circle class="fil1" cx="7314" cy="424" r="68"/>
  <circle class="fil1" cx="7350" cy="316" r="68"/>
  <circle class="fil1" cx="7379" cy="226" r="68"/>
  <rect class="fil0" x="1987" width="1987" height="1987"/>
  <rect class="fil1" x="3062" y="1419" width="180" height="472"/>
  <rect class="fil1" x="2736" y="1419" width="180" height="472"/>
  <rect class="fil2" transform="matrix(0.00118645 0.999999 0.999999 -0.00118564 2083.43 758.392)" width="241" height="351"/>
  <rect class="fil1" transform="matrix(0.00114059 0.961341 -0.961341 0.00114059 2675.32 757.686)" width="250" height="250"/>
  <rect class="fil2" x="2533" y="96" width="910" height="661"/>
  <rect class="fil1" x="2661" y="424" width="56.8923" height="99.5621"/>
  <rect class="fil1" x="2859" y="424" width="56.8923" height="99.5621"/>
  <rect class="fil3" x="2533" y="758" width="910" height="661"/>
  <polygon class="fil4" points="3002,718 2908,583 2718,583 2718,718 "/>
  <rect class="fil1" transform="matrix(-0.2501 -0.928239 -0.928239 0.2501 2966.98 1096.18)" width="250" height="250"/>
  <rect class="fil2" transform="matrix(-0.260158 -0.965566 -0.965566 0.260158 2734.06 1158.93)" width="241" height="351"/>
  <rect class="fil1" x="2533" y="1419" width="910" height="175"/>
  <circle class="fil1" cx="3376" cy="107" r="68"/>
  <circle class="fil1" cx="3247" cy="107" r="68"/>
  <circle class="fil1" cx="3118" cy="107" r="68"/>
  <circle class="fil1" cx="2989" cy="107" r="68"/>
  <circle class="fil1" cx="2859" cy="107" r="68"/>
  <circle class="fil1" cx="2730" cy="107" r="68"/>
  <circle class="fil1" cx="2601" cy="107" r="68"/>
  <circle class="fil1" cx="3444" cy="164" r="68"/>
  <circle class="fil1" cx="3444" cy="280" r="68"/>
  <circle class="fil1" cx="3444" cy="397" r="68"/>
  <circle class="fil1" cx="3444" cy="513" r="68"/>
  <circle class="fil1" cx="3376" cy="454" r="68"/>
  <circle class="fil1" cx="3376" cy="345" r="68"/>
  <circle class="fil1" cx="3376" cy="236" r="68"/>
  <circle class="fil1" cx="3312" cy="213" r="68"/>
  <circle class="fil1" cx="3185" cy="175" r="68"/>
  <circle class="fil1" cx="3308" cy="314" r="68"/>
  <circle class="fil1" cx="3241" cy="261" r="68"/>
 </g>
</svg>
