<svg xmlns="http://www.w3.org/2000/svg" xml:space="preserve" width="326.54mm" height="81.6349mm" version="1.1"
style="fill-rule:evenodd" viewBox="0 0 26747 6687">
 <!-- @treedbox, treedbox.com -->
 <defs>
  <style type="text/css">
   <![CDATA[
    .fil0 {fill:none}
    .fil5 {fill:black}
    .fil4 {fill:#663300}
    .fil6 {fill:#9900CC}
    .fil3 {fill:#FF0066}
    .fil2 {fill:#FF6600}
    .fil1 {fill:#FFCC99}
   ]]>
  </style>
 </defs>
 <g>
  <rect class="fil0" x="20060" width="6687" height="6687"/>
  <rect class="fil1" x="21845" y="324" width="3063" height="2225"/>
  <path class="fil2" d="M24716 1872c210,145 333,448 660,0 227,-312 -50,-822 -293,-1056 -111,-108 45,-331 -160,-454l-35 -38c11,-142 -829,-227 -1524,-256l-12 0c-696,29 -1469,114 -1458,256l-35 38c-205,123 -115,346 -226,454 -243,234 -521,744 -293,1056 326,448 449,145 659,0 -550,200 -178,-1082 322,-1095 316,-8 691,-19 1032,43l10 0c340,-62 716,-51 1031,-43 501,13 873,1295 322,1095z"/>
  <path class="fil2" d="M21662 1739c310,877 3400,826 3400,-185 0,-294 -226,-819 -586,-852 -15,-153 -2435,-342 -2615,111 -124,314 -241,534 -199,926z"/>
  <rect class="fil0" x="13373" width="6687" height="6687"/>
  <path class="fil2" d="M15033 1739c310,877 3399,826 3399,-185 0,-294 -225,-819 -585,-852 -16,-153 -2435,-342 -2615,111 -125,314 -242,534 -199,926z"/>
  <rect class="fil0" width="6687" height="6687"/>
  <rect class="fil1" x="15839" y="4775" width="604" height="1587"/>
  <rect class="fil1" x="16936" y="4775" width="604" height="1587"/>
  <rect class="fil1" transform="matrix(0.865432 -0.501027 0.501026 0.865432 17926.6 3657.98)" width="810" height="1180"/>
  <rect class="fil3" transform="matrix(0.831975 -0.481658 0.481658 0.831975 17519.9 2955.49)" width="843" height="843"/>
  <rect class="fil1" x="15158" y="324" width="3063" height="2225"/>
  <rect class="fil4" x="16927" y="1425" width="191" height="335"/>
  <rect class="fil4" x="16260" y="1425" width="191" height="335"/>
  <rect class="fil3" x="15158" y="2550" width="3063" height="2225"/>
  <polygon class="fil5" points="16211,2416 16529,1961 17168,1961 17168,2416 "/>
  <rect class="fil3" transform="matrix(0.831879 0.481824 -0.481824 0.831879 15156.3 2549.69)" width="843" height="843"/>
  <rect class="fil1" transform="matrix(0.865332 0.5012 -0.5012 0.865331 14749.4 3252.11)" width="810" height="1180"/>
  <rect class="fil6" x="15158" y="4775" width="3063" height="590"/>
  <rect class="fil1" x="22525" y="4775" width="604" height="1587"/>
  <rect class="fil1" x="23623" y="4775" width="604" height="1587"/>
  <rect class="fil1" transform="matrix(0.865432 0.501027 -0.501026 0.865432 25204.5 1378.96)" width="810" height="1180"/>
  <rect class="fil3" transform="matrix(0.831975 0.481658 0.481658 -0.831975 24206.5 3102.7)" width="843" height="843"/>
  <rect class="fil3" x="21845" y="2550" width="3063" height="2225"/>
  <rect class="fil3" transform="matrix(0.831879 -0.481824 -0.481824 -0.831879 21842.9 3508.61)" width="843" height="843"/>
  <rect class="fil1" transform="matrix(0.865332 -0.5012 0.5012 0.865331 20844.6 1785.06)" width="810" height="1180"/>
  <rect class="fil6" x="21845" y="4775" width="3063" height="590"/>
  <rect class="fil1" x="2466" y="4775" width="604" height="1587"/>
  <rect class="fil1" x="3563" y="4775" width="604" height="1587"/>
  <rect class="fil1" transform="matrix(-0.00118645 0.999999 -0.999999 -0.00118564 6362.38 2552.05)" width="810" height="1180"/>
  <rect class="fil3" transform="matrix(-0.00114059 0.961341 0.961341 0.00114059 4370.61 2549.68)" width="843" height="843"/>
  <rect class="fil1" x="1785" y="324" width="3063" height="2225"/>
  <rect class="fil4" x="4227" y="1425" width="191" height="335"/>
  <rect class="fil4" x="3560" y="1425" width="191" height="335"/>
  <rect class="fil3" x="1785" y="2550" width="3063" height="2225"/>
  <polygon class="fil5" points="3271,2416 3589,1961 4227,1961 4227,2416 "/>
  <rect class="fil3" transform="matrix(0.2501 -0.928239 0.928239 0.2501 3389.18 3688.73)" width="843" height="843"/>
  <rect class="fil1" transform="matrix(0.260158 -0.965566 0.965566 0.260158 4172.97 3899.91)" width="810" height="1180"/>
  <rect class="fil6" x="1785" y="4775" width="3063" height="590"/>
  <path class="fil2" d="M4861 1872c210,145 333,448 660,0 227,-312 -51,-822 -293,-1056 -111,-108 -140,-331 -345,-454l-35 -38c23,-292 -2773,-342 -2942,-164 -83,88 -93,27 -121,164 -174,76 -366,672 -366,867 0,434 -120,725 249,995 5,3 123,95 123,96 455,0 834,70 1191,-286 233,-231 352,-856 36,-399 -127,185 -590,41 -286,-362 376,-501 1202,-473 1807,-458 501,13 872,1295 322,1095z"/>
  <path class="fil2" d="M18015 1872c210,145 333,448 659,0 228,-312 -50,-822 -292,-1056 -112,-108 45,-331 -161,-454l-34 -38c11,-142 -829,-227 -1525,-256l-11 0c-696,29 -1470,114 -1459,256l-34 38c-206,123 -116,346 -227,454 -242,234 -520,744 -293,1056 327,448 450,145 660,0 -550,200 -179,-1082 322,-1095 315,-8 691,-19 1031,43l10 0c341,-62 717,-51 1032,-43 500,13 872,1295 322,1095z"/>
  <rect class="fil0" x="6687" width="6687" height="6687"/>
  <rect class="fil1" x="10303" y="4775" width="604" height="1587"/>
  <rect class="fil1" x="9206" y="4775" width="604" height="1587"/>
  <rect class="fil1" transform="matrix(0.00118645 0.999999 0.999999 -0.00118564 7010.91 2552.05)" width="810" height="1180"/>
  <rect class="fil3" transform="matrix(0.00114059 0.961341 -0.961341 0.00114059 9002.68 2549.68)" width="843" height="843"/>
  <rect class="fil1" x="8525" y="324" width="3063" height="2225"/>
  <rect class="fil4" x="8955" y="1425" width="191" height="335"/>
  <rect class="fil4" x="9621" y="1425" width="191" height="335"/>
  <rect class="fil3" x="8525" y="2550" width="3063" height="2225"/>
  <polygon class="fil5" points="10103,2416 9785,1961 9146,1961 9146,2416 "/>
  <rect class="fil3" transform="matrix(-0.2501 -0.928239 -0.928239 0.2501 9984.12 3688.73)" width="843" height="843"/>
  <rect class="fil1" transform="matrix(-0.260158 -0.965566 -0.965566 0.260158 9200.32 3899.91)" width="810" height="1180"/>
  <rect class="fil6" x="8525" y="4775" width="3063" height="590"/>
  <path class="fil2" d="M8512 1872c-210,145 -333,448 -659,0 -228,-312 50,-822 293,-1056 111,-108 139,-331 345,-454l34 -38c-23,-292 2773,-342 2942,-164 83,88 94,27 122,164 174,76 366,672 366,867 0,434 119,725 -250,995 -5,3 -122,95 -123,96 -455,0 -833,70 -1191,-286 -233,-231 -352,-856 -36,-399 128,185 590,41 287,-362 -377,-501 -1203,-473 -1808,-458 -500,13 -872,1295 -322,1095z"/>
 </g>
</svg>
