<svg xmlns="http://www.w3.org/2000/svg" xml:space="preserve" width="132.292mm" height="132.292mm" version="1.1"
style="fill-rule:evenodd" viewBox="0 0 13229 13229">
 <!-- @treedbox, treedbox.com -->
 <defs>
  <style type="text/css">
   <![CDATA[
    .fil2 {fill:none}
    .fil1 {fill:black}
    .fil0 {fill:#FFDD00}
    .fil3 {fill:black}
   ]]>
  </style>
 </defs>
     <rect class="fil0" width="13229" height="13229"/>
       <path class="fil1" d="M6612 7188c1592,0 2883,-1292 2883,-2883l-1142 0c0,962 -778,1736 -1741,1736 -958,0 -1736,-774 -1736,-1736l-1142 0c0,1591 1292,2883 2878,2883z"/>
       <path class="fil2" d="M6612 1427c1592,0 2883,1291 2883,2878l-1142 0c0,-958 -778,-1737 -1741,-1737 -958,0 -1736,779 -1736,1737l-1142 0c0,-1587 1292,-2878 2878,-2878z"/>
      <path class="fil1" d="M8073 4436c-39,773 -677,1388 -1461,1388 -803,0 -1456,-653 -1456,-1461 0,-803 653,-1456 1456,-1456l0 0 648 0 0 -1311 813 0c0,924 0,1848 0,2767l0 73 0 0 0 0zm-813 -73c0,0 0,0 0,0 0,358 -290,648 -648,648 -353,0 -643,-290 -643,-648 0,-353 290,-643 643,-643l648 0 0 643 0 0z"/>
       <path class="fil1" d="M6612 6041c1592,0 2883,1292 2883,2883l-1142 0c0,-962 -778,-1736 -1741,-1736 -958,0 -1736,774 -1736,1736l-1142 0c0,-1591 1292,-2883 2878,-2883z"/>
       <path class="fil2" d="M6612 11802c1592,0 2883,-1291 2883,-2878l-1142 0c0,958 -778,1737 -1741,1737 -958,0 -1736,-779 -1736,-1737l-1142 0c0,1587 1292,2878 2878,2878z"/>
       <path class="fil1" d="M6612 7188c1592,0 2883,-1292 2883,-2883l-1142 0c0,962 -778,1736 -1741,1736 -958,0 -1736,-774 -1736,-1736l-1142 0c0,1591 1292,2883 2878,2883z"/>
       <path class="fil2" d="M6612 1427c1592,0 2883,1291 2883,2878l-1142 0c0,-958 -778,-1737 -1741,-1737 -958,0 -1736,779 -1736,1737l-1142 0c0,-1587 1292,-2878 2878,-2878z"/>
       <path class="fil1" d="M6612 6041c1592,0 2883,1292 2883,2883l-1142 0c0,-962 -778,-1736 -1741,-1736 -958,0 -1736,774 -1736,1736l-1142 0c0,-1591 1292,-2883 2878,-2883z"/>
       <path class="fil2" d="M6612 11802c1592,0 2883,-1291 2883,-2878l-1142 0c0,958 -778,1737 -1741,1737 -958,0 -1736,-779 -1736,-1737l-1142 0c0,1587 1292,2878 2878,2878z"/>
   <polygon class="fil3" points="2318,9995 2748,9995 2748,11284 2962,11284 2962,9995 3392,9995 3392,9780 2318,9780 "/>
   <path id="1" class="fil3" d="M3606 10425l215 0 0 859 215 0 0 -859 -215 0 0 -215 -215 0 0 215zm430 0l214 0 0 215 215 0 0 -430 -429 0 0 215z"/>
   <polygon id="2" class="fil3" points="4681,11069 4896,11069 4896,11284 5325,11284 5325,11069 4896,11069 4896,10854 5540,10854 5540,10425 5325,10425 5325,10210 4896,10210 4896,10425 5325,10425 5325,10640 4896,10640 4896,10425 4681,10425 "/>
   <polygon id="3" class="fil3" points="5755,11069 5970,11069 5970,11284 6399,11284 6399,11069 5970,11069 5970,10854 6614,10854 6614,10425 6399,10425 6399,10210 5970,10210 5970,10425 6399,10425 6399,10640 5970,10640 5970,10425 5755,10425 "/>
   <path id="4" class="fil3" d="M6829 11069l0 -644 215 0 0 -215 430 0 0 -430 215 0 0 1504 -645 0 0 -215 -215 0zm215 0l430 0 0 -644 -430 0 0 644z"/>
   <path id="5" class="fil3" d="M7904 11284l644 0 0 -215 215 0 0 -429 -215 0 0 -215 -429 0 0 -430 429 0 0 430 215 0 0 -430 -215 0 0 -215 -644 0 0 1504zm215 -215l0 -429 429 0 0 429 -429 0z"/>
   <path id="6" class="fil3" d="M8978 11069l215 0 0 215 429 0 0 -215 -429 0 0 -644 -215 0 0 644zm215 -644l429 0 0 644 215 0 0 -644 -215 0 0 -215 -429 0 0 215z"/>
   <path id="7" class="fil3" d="M10052 11284l216 0 0 -430 -216 0 0 430zm0 -644l216 0 0 214 429 0 0 430 214 0 0 -430 -214 0 0 -214 -429 0 0 -430 -216 0 0 430zm645 0l214 0 0 -430 -214 0 0 430z"/>
   <path class="fil3" d="M5006 12605l85 0 0 -169 169 0 0 -85 85 0 0 -254 -85 0 0 -85 -254 0 0 593zm85 -254l0 -254 169 0 0 254 -169 0z"/>
   <path id="1" class="fil3" d="M5429 12097l85 0 0 339 85 0 0 -339 -85 0 0 -85 -85 0 0 85zm170 0l84 0 0 85 85 0 0 -170 -169 0 0 85z"/>
   <polygon id="2" class="fil3" points="5853,12351 5938,12351 5938,12436 6107,12436 6107,12351 5938,12351 5938,12266 6191,12266 6191,12097 6107,12097 6107,12012 5938,12012 5938,12097 6107,12097 6107,12182 5938,12182 5938,12097 5853,12097 "/>
   <path id="3" class="fil3" d="M6276 12436l254 0 0 -85 -254 0 0 85zm0 -254l85 0 0 84 169 0 0 85 85 0 0 -85 -85 0 0 -84 -169 0 0 -85 -85 0 0 85zm85 -85l254 0 0 -85 -254 0 0 85z"/>
   <polygon id="4" class="fil3" points="6699,12351 6784,12351 6784,12436 6953,12436 6953,12351 6784,12351 6784,12266 7038,12266 7038,12097 6953,12097 6953,12012 6784,12012 6784,12097 6953,12097 6953,12182 6784,12182 6784,12097 6699,12097 "/>
   <polygon id="5" class="fil3" points="7123,12436 7208,12436 7208,12097 7377,12097 7377,12436 7461,12436 7461,12097 7377,12097 7377,12012 7123,12012 "/>
   <polygon id="6" class="fil3" points="7546,12097 7631,12097 7631,12351 7716,12351 7716,12436 7800,12436 7800,12351 7716,12351 7716,12097 7800,12097 7800,12012 7716,12012 7716,11843 7631,11843 7631,12012 7546,12012 "/>
   <path id="7" class="fil3" d="M7885 12436l253 0 0 -85 -253 0 0 85zm0 -254l84 0 0 84 169 0 0 85 85 0 0 -85 -85 0 0 -84 -169 0 0 -85 -84 0 0 85zm84 -85l254 0 0 -85 -254 0 0 85z"/>
</svg>
